<mxfile host="Electron" agent="Mozilla/5.0 (Windows NT 10.0; Win64; x64) AppleWebKit/537.36 (KHTML, like Gecko) draw.io/26.2.2 Chrome/134.0.6998.178 Electron/35.1.2 Safari/537.36" version="26.2.2">
  <diagram id="C5RBs43oDa-KdzZeNtuy" name="Page-1">
    <mxGraphModel dx="4596" dy="2669" grid="1" gridSize="10" guides="1" tooltips="1" connect="1" arrows="1" fold="1" page="1" pageScale="1" pageWidth="827" pageHeight="1169" math="0" shadow="0">
      <root>
        <mxCell id="WIyWlLk6GJQsqaUBKTNV-0" />
        <mxCell id="WIyWlLk6GJQsqaUBKTNV-1" parent="WIyWlLk6GJQsqaUBKTNV-0" />
        <mxCell id="BO4RsrXT0FEhWMIk0yd--33" style="edgeStyle=orthogonalEdgeStyle;rounded=0;orthogonalLoop=1;jettySize=auto;html=1;entryX=0.5;entryY=0;entryDx=0;entryDy=0;" edge="1" parent="WIyWlLk6GJQsqaUBKTNV-1" source="BO4RsrXT0FEhWMIk0yd--0" target="BO4RsrXT0FEhWMIk0yd--27">
          <mxGeometry relative="1" as="geometry" />
        </mxCell>
        <mxCell id="BO4RsrXT0FEhWMIk0yd--0" value="BoardManager" style="swimlane;fontStyle=1;align=center;verticalAlign=top;childLayout=stackLayout;horizontal=1;startSize=26;horizontalStack=0;resizeParent=1;resizeParentMax=0;resizeLast=0;collapsible=1;marginBottom=0;whiteSpace=wrap;html=1;" vertex="1" parent="WIyWlLk6GJQsqaUBKTNV-1">
          <mxGeometry x="334" y="190" width="406" height="452" as="geometry" />
        </mxCell>
        <mxCell id="BO4RsrXT0FEhWMIk0yd--1" value="Signal SetHitMarker" style="text;strokeColor=none;fillColor=none;align=left;verticalAlign=top;spacingLeft=4;spacingRight=4;overflow=hidden;rotatable=0;points=[[0,0.5],[1,0.5]];portConstraint=eastwest;whiteSpace=wrap;html=1;" vertex="1" parent="BO4RsrXT0FEhWMIk0yd--0">
          <mxGeometry y="26" width="406" height="26" as="geometry" />
        </mxCell>
        <mxCell id="BO4RsrXT0FEhWMIk0yd--4" value="Signal SetMissMarker" style="text;strokeColor=none;fillColor=none;align=left;verticalAlign=top;spacingLeft=4;spacingRight=4;overflow=hidden;rotatable=0;points=[[0,0.5],[1,0.5]];portConstraint=eastwest;whiteSpace=wrap;html=1;" vertex="1" parent="BO4RsrXT0FEhWMIk0yd--0">
          <mxGeometry y="52" width="406" height="26" as="geometry" />
        </mxCell>
        <mxCell id="BO4RsrXT0FEhWMIk0yd--61" value="Signal GameOver" style="text;strokeColor=none;fillColor=none;align=left;verticalAlign=top;spacingLeft=4;spacingRight=4;overflow=hidden;rotatable=0;points=[[0,0.5],[1,0.5]];portConstraint=eastwest;whiteSpace=wrap;html=1;" vertex="1" parent="BO4RsrXT0FEhWMIk0yd--0">
          <mxGeometry y="78" width="406" height="26" as="geometry" />
        </mxCell>
        <mxCell id="BO4RsrXT0FEhWMIk0yd--5" value="private int[ , ]&amp;nbsp;shipPositions" style="text;strokeColor=none;fillColor=none;align=left;verticalAlign=top;spacingLeft=4;spacingRight=4;overflow=hidden;rotatable=0;points=[[0,0.5],[1,0.5]];portConstraint=eastwest;whiteSpace=wrap;html=1;" vertex="1" parent="BO4RsrXT0FEhWMIk0yd--0">
          <mxGeometry y="104" width="406" height="26" as="geometry" />
        </mxCell>
        <mxCell id="BO4RsrXT0FEhWMIk0yd--6" value="protected List&amp;lt;Ship&amp;gt; Ships" style="text;strokeColor=none;fillColor=none;align=left;verticalAlign=top;spacingLeft=4;spacingRight=4;overflow=hidden;rotatable=0;points=[[0,0.5],[1,0.5]];portConstraint=eastwest;whiteSpace=wrap;html=1;" vertex="1" parent="BO4RsrXT0FEhWMIk0yd--0">
          <mxGeometry y="130" width="406" height="26" as="geometry" />
        </mxCell>
        <mxCell id="BO4RsrXT0FEhWMIk0yd--8" value="private string _gridName" style="text;strokeColor=none;fillColor=none;align=left;verticalAlign=top;spacingLeft=4;spacingRight=4;overflow=hidden;rotatable=0;points=[[0,0.5],[1,0.5]];portConstraint=eastwest;whiteSpace=wrap;html=1;" vertex="1" parent="BO4RsrXT0FEhWMIk0yd--0">
          <mxGeometry y="156" width="406" height="26" as="geometry" />
        </mxCell>
        <mxCell id="BO4RsrXT0FEhWMIk0yd--9" value="private bool _isPlayerBoard" style="text;strokeColor=none;fillColor=none;align=left;verticalAlign=top;spacingLeft=4;spacingRight=4;overflow=hidden;rotatable=0;points=[[0,0.5],[1,0.5]];portConstraint=eastwest;whiteSpace=wrap;html=1;" vertex="1" parent="BO4RsrXT0FEhWMIk0yd--0">
          <mxGeometry y="182" width="406" height="26" as="geometry" />
        </mxCell>
        <mxCell id="BO4RsrXT0FEhWMIk0yd--10" value="private GameManager _gameManager" style="text;strokeColor=none;fillColor=none;align=left;verticalAlign=top;spacingLeft=4;spacingRight=4;overflow=hidden;rotatable=0;points=[[0,0.5],[1,0.5]];portConstraint=eastwest;whiteSpace=wrap;html=1;" vertex="1" parent="BO4RsrXT0FEhWMIk0yd--0">
          <mxGeometry y="208" width="406" height="26" as="geometry" />
        </mxCell>
        <mxCell id="BO4RsrXT0FEhWMIk0yd--2" value="" style="line;strokeWidth=1;fillColor=none;align=left;verticalAlign=middle;spacingTop=-1;spacingLeft=3;spacingRight=3;rotatable=0;labelPosition=right;points=[];portConstraint=eastwest;strokeColor=inherit;" vertex="1" parent="BO4RsrXT0FEhWMIk0yd--0">
          <mxGeometry y="234" width="406" height="8" as="geometry" />
        </mxCell>
        <mxCell id="BO4RsrXT0FEhWMIk0yd--122" value="public void _Ready()" style="text;strokeColor=none;fillColor=none;align=left;verticalAlign=top;spacingLeft=4;spacingRight=4;overflow=hidden;rotatable=0;points=[[0,0.5],[1,0.5]];portConstraint=eastwest;whiteSpace=wrap;html=1;" vertex="1" parent="BO4RsrXT0FEhWMIk0yd--0">
          <mxGeometry y="242" width="406" height="26" as="geometry" />
        </mxCell>
        <mxCell id="BO4RsrXT0FEhWMIk0yd--3" value="public void InitBoard(int[ , ] board, bool isPlayerBoard)" style="text;strokeColor=none;fillColor=none;align=left;verticalAlign=top;spacingLeft=4;spacingRight=4;overflow=hidden;rotatable=0;points=[[0,0.5],[1,0.5]];portConstraint=eastwest;whiteSpace=wrap;html=1;" vertex="1" parent="BO4RsrXT0FEhWMIk0yd--0">
          <mxGeometry y="268" width="406" height="26" as="geometry" />
        </mxCell>
        <mxCell id="BO4RsrXT0FEhWMIk0yd--11" value="private void AttackField(int x, int y)" style="text;strokeColor=none;fillColor=none;align=left;verticalAlign=top;spacingLeft=4;spacingRight=4;overflow=hidden;rotatable=0;points=[[0,0.5],[1,0.5]];portConstraint=eastwest;whiteSpace=wrap;html=1;" vertex="1" parent="BO4RsrXT0FEhWMIk0yd--0">
          <mxGeometry y="294" width="406" height="26" as="geometry" />
        </mxCell>
        <mxCell id="BO4RsrXT0FEhWMIk0yd--12" value="private void CheckIfAllShipsAreDead()" style="text;strokeColor=none;fillColor=none;align=left;verticalAlign=top;spacingLeft=4;spacingRight=4;overflow=hidden;rotatable=0;points=[[0,0.5],[1,0.5]];portConstraint=eastwest;whiteSpace=wrap;html=1;" vertex="1" parent="BO4RsrXT0FEhWMIk0yd--0">
          <mxGeometry y="320" width="406" height="26" as="geometry" />
        </mxCell>
        <mxCell id="BO4RsrXT0FEhWMIk0yd--25" value="public void SetShipArray()" style="text;strokeColor=none;fillColor=none;align=left;verticalAlign=top;spacingLeft=4;spacingRight=4;overflow=hidden;rotatable=0;points=[[0,0.5],[1,0.5]];portConstraint=eastwest;whiteSpace=wrap;html=1;" vertex="1" parent="BO4RsrXT0FEhWMIk0yd--0">
          <mxGeometry y="346" width="406" height="26" as="geometry" />
        </mxCell>
        <mxCell id="BO4RsrXT0FEhWMIk0yd--13" value="public List&amp;lt;Ship&amp;gt; GetShips()" style="text;strokeColor=none;fillColor=none;align=left;verticalAlign=top;spacingLeft=4;spacingRight=4;overflow=hidden;rotatable=0;points=[[0,0.5],[1,0.5]];portConstraint=eastwest;whiteSpace=wrap;html=1;" vertex="1" parent="BO4RsrXT0FEhWMIk0yd--0">
          <mxGeometry y="372" width="406" height="26" as="geometry" />
        </mxCell>
        <mxCell id="BO4RsrXT0FEhWMIk0yd--14" value="public int[ , ] GetBoard()" style="text;strokeColor=none;fillColor=none;align=left;verticalAlign=top;spacingLeft=4;spacingRight=4;overflow=hidden;rotatable=0;points=[[0,0.5],[1,0.5]];portConstraint=eastwest;whiteSpace=wrap;html=1;" vertex="1" parent="BO4RsrXT0FEhWMIk0yd--0">
          <mxGeometry y="398" width="406" height="26" as="geometry" />
        </mxCell>
        <mxCell id="BO4RsrXT0FEhWMIk0yd--15" value="private int[ , ] CopyBoard(int[ , ] originalBoard)" style="text;strokeColor=none;fillColor=none;align=left;verticalAlign=top;spacingLeft=4;spacingRight=4;overflow=hidden;rotatable=0;points=[[0,0.5],[1,0.5]];portConstraint=eastwest;whiteSpace=wrap;html=1;" vertex="1" parent="BO4RsrXT0FEhWMIk0yd--0">
          <mxGeometry y="424" width="406" height="28" as="geometry" />
        </mxCell>
        <mxCell id="BO4RsrXT0FEhWMIk0yd--19" style="edgeStyle=orthogonalEdgeStyle;rounded=0;orthogonalLoop=1;jettySize=auto;html=1;exitX=1;exitY=0.25;exitDx=0;exitDy=0;entryX=0;entryY=0.5;entryDx=0;entryDy=0;" edge="1" parent="WIyWlLk6GJQsqaUBKTNV-1" source="BO4RsrXT0FEhWMIk0yd--16" target="BO4RsrXT0FEhWMIk0yd--6">
          <mxGeometry relative="1" as="geometry" />
        </mxCell>
        <mxCell id="BO4RsrXT0FEhWMIk0yd--16" value="struct Ship" style="swimlane;fontStyle=1;align=center;verticalAlign=middle;childLayout=stackLayout;horizontal=1;startSize=29;horizontalStack=0;resizeParent=1;resizeParentMax=0;resizeLast=0;collapsible=0;marginBottom=0;html=1;whiteSpace=wrap;" vertex="1" parent="WIyWlLk6GJQsqaUBKTNV-1">
          <mxGeometry x="40" y="190" width="210" height="79" as="geometry" />
        </mxCell>
        <mxCell id="BO4RsrXT0FEhWMIk0yd--17" value="public ShipManager shipManager" style="text;html=1;strokeColor=none;fillColor=none;align=center;verticalAlign=middle;spacingLeft=4;spacingRight=4;overflow=hidden;rotatable=0;points=[[0,0.5],[1,0.5]];portConstraint=eastwest;whiteSpace=wrap;" vertex="1" parent="BO4RsrXT0FEhWMIk0yd--16">
          <mxGeometry y="29" width="210" height="25" as="geometry" />
        </mxCell>
        <mxCell id="BO4RsrXT0FEhWMIk0yd--18" value="public List&amp;lt;int[ , ]&amp;gt; shipPositions" style="text;html=1;strokeColor=none;fillColor=none;align=left;verticalAlign=middle;spacingLeft=4;spacingRight=4;overflow=hidden;rotatable=0;points=[[0,0.5],[1,0.5]];portConstraint=eastwest;whiteSpace=wrap;" vertex="1" parent="BO4RsrXT0FEhWMIk0yd--16">
          <mxGeometry y="54" width="210" height="25" as="geometry" />
        </mxCell>
        <mxCell id="BO4RsrXT0FEhWMIk0yd--20" value="EnemyBoardManager" style="swimlane;fontStyle=1;align=center;verticalAlign=top;childLayout=stackLayout;horizontal=1;startSize=26;horizontalStack=0;resizeParent=1;resizeParentMax=0;resizeLast=0;collapsible=1;marginBottom=0;whiteSpace=wrap;html=1;" vertex="1" parent="WIyWlLk6GJQsqaUBKTNV-1">
          <mxGeometry x="69" y="680" width="265" height="86" as="geometry" />
        </mxCell>
        <mxCell id="BO4RsrXT0FEhWMIk0yd--22" value="" style="line;strokeWidth=1;fillColor=none;align=left;verticalAlign=middle;spacingTop=-1;spacingLeft=3;spacingRight=3;rotatable=0;labelPosition=right;points=[];portConstraint=eastwest;strokeColor=inherit;" vertex="1" parent="BO4RsrXT0FEhWMIk0yd--20">
          <mxGeometry y="26" width="265" height="8" as="geometry" />
        </mxCell>
        <mxCell id="BO4RsrXT0FEhWMIk0yd--23" value="public void SetShips(List&amp;lt;Ship&amp;gt; ships)" style="text;strokeColor=none;fillColor=none;align=left;verticalAlign=top;spacingLeft=4;spacingRight=4;overflow=hidden;rotatable=0;points=[[0,0.5],[1,0.5]];portConstraint=eastwest;whiteSpace=wrap;html=1;" vertex="1" parent="BO4RsrXT0FEhWMIk0yd--20">
          <mxGeometry y="34" width="265" height="26" as="geometry" />
        </mxCell>
        <mxCell id="BO4RsrXT0FEhWMIk0yd--24" value="private void PrintAllShips()" style="text;strokeColor=none;fillColor=none;align=left;verticalAlign=top;spacingLeft=4;spacingRight=4;overflow=hidden;rotatable=0;points=[[0,0.5],[1,0.5]];portConstraint=eastwest;whiteSpace=wrap;html=1;" vertex="1" parent="BO4RsrXT0FEhWMIk0yd--20">
          <mxGeometry y="60" width="265" height="26" as="geometry" />
        </mxCell>
        <mxCell id="BO4RsrXT0FEhWMIk0yd--26" style="edgeStyle=orthogonalEdgeStyle;rounded=0;orthogonalLoop=1;jettySize=auto;html=1;entryX=0.523;entryY=0.008;entryDx=0;entryDy=0;entryPerimeter=0;" edge="1" parent="WIyWlLk6GJQsqaUBKTNV-1" source="BO4RsrXT0FEhWMIk0yd--0" target="BO4RsrXT0FEhWMIk0yd--20">
          <mxGeometry relative="1" as="geometry">
            <Array as="points">
              <mxPoint x="537" y="640" />
              <mxPoint x="208" y="640" />
            </Array>
          </mxGeometry>
        </mxCell>
        <mxCell id="BO4RsrXT0FEhWMIk0yd--27" value="PlayerBoardManager" style="swimlane;fontStyle=1;align=center;verticalAlign=top;childLayout=stackLayout;horizontal=1;startSize=26;horizontalStack=0;resizeParent=1;resizeParentMax=0;resizeLast=0;collapsible=1;marginBottom=0;whiteSpace=wrap;html=1;" vertex="1" parent="WIyWlLk6GJQsqaUBKTNV-1">
          <mxGeometry x="740" y="690" width="390" height="86" as="geometry" />
        </mxCell>
        <mxCell id="BO4RsrXT0FEhWMIk0yd--28" value="" style="line;strokeWidth=1;fillColor=none;align=left;verticalAlign=middle;spacingTop=-1;spacingLeft=3;spacingRight=3;rotatable=0;labelPosition=right;points=[];portConstraint=eastwest;strokeColor=inherit;" vertex="1" parent="BO4RsrXT0FEhWMIk0yd--27">
          <mxGeometry y="26" width="390" height="8" as="geometry" />
        </mxCell>
        <mxCell id="BO4RsrXT0FEhWMIk0yd--29" value="public void SetShip(List&amp;lt;int[ , ]&amp;gt; positions, ShipManager shipManager" style="text;strokeColor=none;fillColor=none;align=left;verticalAlign=top;spacingLeft=4;spacingRight=4;overflow=hidden;rotatable=0;points=[[0,0.5],[1,0.5]];portConstraint=eastwest;whiteSpace=wrap;html=1;" vertex="1" parent="BO4RsrXT0FEhWMIk0yd--27">
          <mxGeometry y="34" width="390" height="26" as="geometry" />
        </mxCell>
        <mxCell id="BO4RsrXT0FEhWMIk0yd--30" value="public int GetShipCount()" style="text;strokeColor=none;fillColor=none;align=left;verticalAlign=top;spacingLeft=4;spacingRight=4;overflow=hidden;rotatable=0;points=[[0,0.5],[1,0.5]];portConstraint=eastwest;whiteSpace=wrap;html=1;" vertex="1" parent="BO4RsrXT0FEhWMIk0yd--27">
          <mxGeometry y="60" width="390" height="26" as="geometry" />
        </mxCell>
        <mxCell id="BO4RsrXT0FEhWMIk0yd--34" value="GameManager" style="swimlane;fontStyle=1;align=center;verticalAlign=top;childLayout=stackLayout;horizontal=1;startSize=26;horizontalStack=0;resizeParent=1;resizeParentMax=0;resizeLast=0;collapsible=1;marginBottom=0;whiteSpace=wrap;html=1;" vertex="1" parent="WIyWlLk6GJQsqaUBKTNV-1">
          <mxGeometry x="1670" y="114" width="370" height="528" as="geometry" />
        </mxCell>
        <mxCell id="BO4RsrXT0FEhWMIk0yd--35" value="Signal EnemyTurn&lt;div&gt;&lt;br&gt;&lt;/div&gt;" style="text;strokeColor=none;fillColor=none;align=left;verticalAlign=top;spacingLeft=4;spacingRight=4;overflow=hidden;rotatable=0;points=[[0,0.5],[1,0.5]];portConstraint=eastwest;whiteSpace=wrap;html=1;" vertex="1" parent="BO4RsrXT0FEhWMIk0yd--34">
          <mxGeometry y="26" width="370" height="26" as="geometry" />
        </mxCell>
        <mxCell id="BO4RsrXT0FEhWMIk0yd--38" value="Signal EnemySetNewMatch&lt;span style=&quot;color: rgba(0, 0, 0, 0); font-family: monospace; font-size: 0px; text-wrap-mode: nowrap;&quot;&gt;%3CmxGraphModel%3E%3Croot%3E%3CmxCell%20id%3D%220%22%2F%3E%3CmxCell%20id%3D%221%22%20parent%3D%220%22%2F%3E%3CmxCell%20id%3D%222%22%20value%3D%22Signal%20EnemyTurn%26lt%3Bdiv%26gt%3B%26lt%3Bbr%26gt%3B%26lt%3B%2Fdiv%26gt%3B%22%20style%3D%22text%3BstrokeColor%3Dnone%3BfillColor%3Dnone%3Balign%3Dleft%3BverticalAlign%3Dtop%3BspacingLeft%3D4%3BspacingRight%3D4%3Boverflow%3Dhidden%3Brotatable%3D0%3Bpoints%3D%5B%5B0%2C0.5%5D%2C%5B1%2C0.5%5D%5D%3BportConstraint%3Deastwest%3BwhiteSpace%3Dwrap%3Bhtml%3D1%3B%22%20vertex%3D%221%22%20parent%3D%221%22%3E%3CmxGeometry%20x%3D%221200%22%20y%3D%22146%22%20width%3D%22160%22%20height%3D%2226%22%20as%3D%22geometry%22%2F%3E%3C%2FmxCell%3E%3C%2Froot%3E%3C%2FmxGraphModel%3E&lt;/span&gt;&lt;div&gt;&lt;br&gt;&lt;/div&gt;" style="text;strokeColor=none;fillColor=none;align=left;verticalAlign=top;spacingLeft=4;spacingRight=4;overflow=hidden;rotatable=0;points=[[0,0.5],[1,0.5]];portConstraint=eastwest;whiteSpace=wrap;html=1;" vertex="1" parent="BO4RsrXT0FEhWMIk0yd--34">
          <mxGeometry y="52" width="370" height="26" as="geometry" />
        </mxCell>
        <mxCell id="BO4RsrXT0FEhWMIk0yd--39" value="Signal EnemyUpdateBonus" style="text;strokeColor=none;fillColor=none;align=left;verticalAlign=top;spacingLeft=4;spacingRight=4;overflow=hidden;rotatable=0;points=[[0,0.5],[1,0.5]];portConstraint=eastwest;whiteSpace=wrap;html=1;" vertex="1" parent="BO4RsrXT0FEhWMIk0yd--34">
          <mxGeometry y="78" width="370" height="26" as="geometry" />
        </mxCell>
        <mxCell id="BO4RsrXT0FEhWMIk0yd--40" value="Signal ShipControllStageBegin&lt;div&gt;&lt;br&gt;&lt;/div&gt;" style="text;strokeColor=none;fillColor=none;align=left;verticalAlign=top;spacingLeft=4;spacingRight=4;overflow=hidden;rotatable=0;points=[[0,0.5],[1,0.5]];portConstraint=eastwest;whiteSpace=wrap;html=1;" vertex="1" parent="BO4RsrXT0FEhWMIk0yd--34">
          <mxGeometry y="104" width="370" height="26" as="geometry" />
        </mxCell>
        <mxCell id="BO4RsrXT0FEhWMIk0yd--41" value="Signal ShipControllStageEnd&lt;div&gt;&lt;br&gt;&lt;/div&gt;" style="text;strokeColor=none;fillColor=none;align=left;verticalAlign=top;spacingLeft=4;spacingRight=4;overflow=hidden;rotatable=0;points=[[0,0.5],[1,0.5]];portConstraint=eastwest;whiteSpace=wrap;html=1;" vertex="1" parent="BO4RsrXT0FEhWMIk0yd--34">
          <mxGeometry y="130" width="370" height="26" as="geometry" />
        </mxCell>
        <mxCell id="BO4RsrXT0FEhWMIk0yd--42" value="Signal ShipControllBoardPlacementFinished&lt;div&gt;&lt;br&gt;&lt;/div&gt;" style="text;strokeColor=none;fillColor=none;align=left;verticalAlign=top;spacingLeft=4;spacingRight=4;overflow=hidden;rotatable=0;points=[[0,0.5],[1,0.5]];portConstraint=eastwest;whiteSpace=wrap;html=1;" vertex="1" parent="BO4RsrXT0FEhWMIk0yd--34">
          <mxGeometry y="156" width="370" height="26" as="geometry" />
        </mxCell>
        <mxCell id="BO4RsrXT0FEhWMIk0yd--43" value="Signal CallGenerateMap" style="text;strokeColor=none;fillColor=none;align=left;verticalAlign=top;spacingLeft=4;spacingRight=4;overflow=hidden;rotatable=0;points=[[0,0.5],[1,0.5]];portConstraint=eastwest;whiteSpace=wrap;html=1;" vertex="1" parent="BO4RsrXT0FEhWMIk0yd--34">
          <mxGeometry y="182" width="370" height="26" as="geometry" />
        </mxCell>
        <mxCell id="BO4RsrXT0FEhWMIk0yd--50" value="public int currentStage" style="text;strokeColor=none;fillColor=none;align=left;verticalAlign=top;spacingLeft=4;spacingRight=4;overflow=hidden;rotatable=0;points=[[0,0.5],[1,0.5]];portConstraint=eastwest;whiteSpace=wrap;html=1;" vertex="1" parent="BO4RsrXT0FEhWMIk0yd--34">
          <mxGeometry y="208" width="370" height="26" as="geometry" />
        </mxCell>
        <mxCell id="BO4RsrXT0FEhWMIk0yd--51" value="public int currentRound" style="text;strokeColor=none;fillColor=none;align=left;verticalAlign=top;spacingLeft=4;spacingRight=4;overflow=hidden;rotatable=0;points=[[0,0.5],[1,0.5]];portConstraint=eastwest;whiteSpace=wrap;html=1;" vertex="1" parent="BO4RsrXT0FEhWMIk0yd--34">
          <mxGeometry y="234" width="370" height="26" as="geometry" />
        </mxCell>
        <mxCell id="BO4RsrXT0FEhWMIk0yd--52" value="private ShipControll _shipControll" style="text;strokeColor=none;fillColor=none;align=left;verticalAlign=top;spacingLeft=4;spacingRight=4;overflow=hidden;rotatable=0;points=[[0,0.5],[1,0.5]];portConstraint=eastwest;whiteSpace=wrap;html=1;" vertex="1" parent="BO4RsrXT0FEhWMIk0yd--34">
          <mxGeometry y="260" width="370" height="26" as="geometry" />
        </mxCell>
        <mxCell id="BO4RsrXT0FEhWMIk0yd--53" value="private PlayerBoardManager _playerBoardManager" style="text;strokeColor=none;fillColor=none;align=left;verticalAlign=top;spacingLeft=4;spacingRight=4;overflow=hidden;rotatable=0;points=[[0,0.5],[1,0.5]];portConstraint=eastwest;whiteSpace=wrap;html=1;" vertex="1" parent="BO4RsrXT0FEhWMIk0yd--34">
          <mxGeometry y="286" width="370" height="26" as="geometry" />
        </mxCell>
        <mxCell id="BO4RsrXT0FEhWMIk0yd--54" value="private EnemyBoardManager _enemyBoardManager" style="text;strokeColor=none;fillColor=none;align=left;verticalAlign=top;spacingLeft=4;spacingRight=4;overflow=hidden;rotatable=0;points=[[0,0.5],[1,0.5]];portConstraint=eastwest;whiteSpace=wrap;html=1;" vertex="1" parent="BO4RsrXT0FEhWMIk0yd--34">
          <mxGeometry y="312" width="370" height="26" as="geometry" />
        </mxCell>
        <mxCell id="BO4RsrXT0FEhWMIk0yd--55" value="private GameState _gameState" style="text;strokeColor=none;fillColor=none;align=left;verticalAlign=top;spacingLeft=4;spacingRight=4;overflow=hidden;rotatable=0;points=[[0,0.5],[1,0.5]];portConstraint=eastwest;whiteSpace=wrap;html=1;" vertex="1" parent="BO4RsrXT0FEhWMIk0yd--34">
          <mxGeometry y="338" width="370" height="26" as="geometry" />
        </mxCell>
        <mxCell id="BO4RsrXT0FEhWMIk0yd--36" value="" style="line;strokeWidth=1;fillColor=none;align=left;verticalAlign=middle;spacingTop=-1;spacingLeft=3;spacingRight=3;rotatable=0;labelPosition=right;points=[];portConstraint=eastwest;strokeColor=inherit;" vertex="1" parent="BO4RsrXT0FEhWMIk0yd--34">
          <mxGeometry y="364" width="370" height="8" as="geometry" />
        </mxCell>
        <mxCell id="BO4RsrXT0FEhWMIk0yd--123" value="public void _Ready()" style="text;strokeColor=none;fillColor=none;align=left;verticalAlign=top;spacingLeft=4;spacingRight=4;overflow=hidden;rotatable=0;points=[[0,0.5],[1,0.5]];portConstraint=eastwest;whiteSpace=wrap;html=1;" vertex="1" parent="BO4RsrXT0FEhWMIk0yd--34">
          <mxGeometry y="372" width="370" height="26" as="geometry" />
        </mxCell>
        <mxCell id="BO4RsrXT0FEhWMIk0yd--37" value="private void SetRequiredDependencies()" style="text;strokeColor=none;fillColor=none;align=left;verticalAlign=top;spacingLeft=4;spacingRight=4;overflow=hidden;rotatable=0;points=[[0,0.5],[1,0.5]];portConstraint=eastwest;whiteSpace=wrap;html=1;" vertex="1" parent="BO4RsrXT0FEhWMIk0yd--34">
          <mxGeometry y="398" width="370" height="26" as="geometry" />
        </mxCell>
        <mxCell id="BO4RsrXT0FEhWMIk0yd--57" value="private void UpdateState()" style="text;strokeColor=none;fillColor=none;align=left;verticalAlign=top;spacingLeft=4;spacingRight=4;overflow=hidden;rotatable=0;points=[[0,0.5],[1,0.5]];portConstraint=eastwest;whiteSpace=wrap;html=1;" vertex="1" parent="BO4RsrXT0FEhWMIk0yd--34">
          <mxGeometry y="424" width="370" height="26" as="geometry" />
        </mxCell>
        <mxCell id="BO4RsrXT0FEhWMIk0yd--58" value="private void ChangeToPlayerTurn()" style="text;strokeColor=none;fillColor=none;align=left;verticalAlign=top;spacingLeft=4;spacingRight=4;overflow=hidden;rotatable=0;points=[[0,0.5],[1,0.5]];portConstraint=eastwest;whiteSpace=wrap;html=1;" vertex="1" parent="BO4RsrXT0FEhWMIk0yd--34">
          <mxGeometry y="450" width="370" height="26" as="geometry" />
        </mxCell>
        <mxCell id="BO4RsrXT0FEhWMIk0yd--59" value="private void PlayerHasWon(bool won)" style="text;strokeColor=none;fillColor=none;align=left;verticalAlign=top;spacingLeft=4;spacingRight=4;overflow=hidden;rotatable=0;points=[[0,0.5],[1,0.5]];portConstraint=eastwest;whiteSpace=wrap;html=1;" vertex="1" parent="BO4RsrXT0FEhWMIk0yd--34">
          <mxGeometry y="476" width="370" height="26" as="geometry" />
        </mxCell>
        <mxCell id="BO4RsrXT0FEhWMIk0yd--60" value="private void OnEnemyTurnFinished()" style="text;strokeColor=none;fillColor=none;align=left;verticalAlign=top;spacingLeft=4;spacingRight=4;overflow=hidden;rotatable=0;points=[[0,0.5],[1,0.5]];portConstraint=eastwest;whiteSpace=wrap;html=1;" vertex="1" parent="BO4RsrXT0FEhWMIk0yd--34">
          <mxGeometry y="502" width="370" height="26" as="geometry" />
        </mxCell>
        <mxCell id="BO4RsrXT0FEhWMIk0yd--44" value="enum GameState" style="swimlane;fontStyle=0;childLayout=stackLayout;horizontal=1;startSize=26;fillColor=none;horizontalStack=0;resizeParent=1;resizeParentMax=0;resizeLast=0;collapsible=1;marginBottom=0;whiteSpace=wrap;html=1;" vertex="1" parent="WIyWlLk6GJQsqaUBKTNV-1">
          <mxGeometry x="1490" y="114" width="140" height="156" as="geometry" />
        </mxCell>
        <mxCell id="BO4RsrXT0FEhWMIk0yd--45" value="RoundSetup" style="text;strokeColor=none;fillColor=none;align=left;verticalAlign=top;spacingLeft=4;spacingRight=4;overflow=hidden;rotatable=0;points=[[0,0.5],[1,0.5]];portConstraint=eastwest;whiteSpace=wrap;html=1;" vertex="1" parent="BO4RsrXT0FEhWMIk0yd--44">
          <mxGeometry y="26" width="140" height="26" as="geometry" />
        </mxCell>
        <mxCell id="BO4RsrXT0FEhWMIk0yd--46" value="RoundStart" style="text;strokeColor=none;fillColor=none;align=left;verticalAlign=top;spacingLeft=4;spacingRight=4;overflow=hidden;rotatable=0;points=[[0,0.5],[1,0.5]];portConstraint=eastwest;whiteSpace=wrap;html=1;" vertex="1" parent="BO4RsrXT0FEhWMIk0yd--44">
          <mxGeometry y="52" width="140" height="26" as="geometry" />
        </mxCell>
        <mxCell id="BO4RsrXT0FEhWMIk0yd--47" value="RoundEnd" style="text;strokeColor=none;fillColor=none;align=left;verticalAlign=top;spacingLeft=4;spacingRight=4;overflow=hidden;rotatable=0;points=[[0,0.5],[1,0.5]];portConstraint=eastwest;whiteSpace=wrap;html=1;" vertex="1" parent="BO4RsrXT0FEhWMIk0yd--44">
          <mxGeometry y="78" width="140" height="26" as="geometry" />
        </mxCell>
        <mxCell id="BO4RsrXT0FEhWMIk0yd--48" value="PlayerTurn" style="text;strokeColor=none;fillColor=none;align=left;verticalAlign=top;spacingLeft=4;spacingRight=4;overflow=hidden;rotatable=0;points=[[0,0.5],[1,0.5]];portConstraint=eastwest;whiteSpace=wrap;html=1;" vertex="1" parent="BO4RsrXT0FEhWMIk0yd--44">
          <mxGeometry y="104" width="140" height="26" as="geometry" />
        </mxCell>
        <mxCell id="BO4RsrXT0FEhWMIk0yd--49" value="EnemyTurn" style="text;strokeColor=none;fillColor=none;align=left;verticalAlign=top;spacingLeft=4;spacingRight=4;overflow=hidden;rotatable=0;points=[[0,0.5],[1,0.5]];portConstraint=eastwest;whiteSpace=wrap;html=1;" vertex="1" parent="BO4RsrXT0FEhWMIk0yd--44">
          <mxGeometry y="130" width="140" height="26" as="geometry" />
        </mxCell>
        <mxCell id="BO4RsrXT0FEhWMIk0yd--56" style="edgeStyle=orthogonalEdgeStyle;rounded=0;orthogonalLoop=1;jettySize=auto;html=1;exitX=1;exitY=0.5;exitDx=0;exitDy=0;entryX=0;entryY=0.5;entryDx=0;entryDy=0;" edge="1" parent="WIyWlLk6GJQsqaUBKTNV-1" source="BO4RsrXT0FEhWMIk0yd--47" target="BO4RsrXT0FEhWMIk0yd--55">
          <mxGeometry relative="1" as="geometry" />
        </mxCell>
        <mxCell id="BO4RsrXT0FEhWMIk0yd--62" value="GameUI" style="swimlane;fontStyle=1;align=center;verticalAlign=top;childLayout=stackLayout;horizontal=1;startSize=26;horizontalStack=0;resizeParent=1;resizeParentMax=0;resizeLast=0;collapsible=1;marginBottom=0;whiteSpace=wrap;html=1;" vertex="1" parent="WIyWlLk6GJQsqaUBKTNV-1">
          <mxGeometry x="280" y="1083" width="440" height="398" as="geometry" />
        </mxCell>
        <mxCell id="BO4RsrXT0FEhWMIk0yd--63" value="Signal HidePlayerShips" style="text;strokeColor=none;fillColor=none;align=left;verticalAlign=top;spacingLeft=4;spacingRight=4;overflow=hidden;rotatable=0;points=[[0,0.5],[1,0.5]];portConstraint=eastwest;whiteSpace=wrap;html=1;" vertex="1" parent="BO4RsrXT0FEhWMIk0yd--62">
          <mxGeometry y="26" width="440" height="26" as="geometry" />
        </mxCell>
        <mxCell id="BO4RsrXT0FEhWMIk0yd--66" value="Signal ShowPlayerShips&lt;span style=&quot;color: rgba(0, 0, 0, 0); font-family: monospace; font-size: 0px; text-wrap-mode: nowrap;&quot;&gt;%3CmxGraphModel%3E%3Croot%3E%3CmxCell%20id%3D%220%22%2F%3E%3CmxCell%20id%3D%221%22%20parent%3D%220%22%2F%3E%3CmxCell%20id%3D%222%22%20value%3D%22Signal%20HidePlayerShips%22%20style%3D%22text%3BstrokeColor%3Dnone%3BfillColor%3Dnone%3Balign%3Dleft%3BverticalAlign%3Dtop%3BspacingLeft%3D4%3BspacingRight%3D4%3Boverflow%3Dhidden%3Brotatable%3D0%3Bpoints%3D%5B%5B0%2C0.5%5D%2C%5B1%2C0.5%5D%5D%3BportConstraint%3Deastwest%3BwhiteSpace%3Dwrap%3Bhtml%3D1%3B%22%20vertex%3D%221%22%20parent%3D%221%22%3E%3CmxGeometry%20x%3D%22280%22%20y%3D%221109%22%20width%3D%22340%22%20height%3D%2226%22%20as%3D%22geometry%22%2F%3E%3C%2FmxCell%3E%3C%2Froot%3E%3C%2FmxGraphModel%3E&lt;/span&gt;" style="text;strokeColor=none;fillColor=none;align=left;verticalAlign=top;spacingLeft=4;spacingRight=4;overflow=hidden;rotatable=0;points=[[0,0.5],[1,0.5]];portConstraint=eastwest;whiteSpace=wrap;html=1;" vertex="1" parent="BO4RsrXT0FEhWMIk0yd--62">
          <mxGeometry y="52" width="440" height="26" as="geometry" />
        </mxCell>
        <mxCell id="BO4RsrXT0FEhWMIk0yd--67" value="Signal MenuOpenMap&lt;span style=&quot;color: rgba(0, 0, 0, 0); font-family: monospace; font-size: 0px; text-wrap-mode: nowrap;&quot;&gt;%3CmxGraphModel%3E%3Croot%3E%3CmxCell%20id%3D%220%22%2F%3E%3CmxCell%20id%3D%221%22%20parent%3D%220%22%2F%3E%3CmxCell%20id%3D%222%22%20value%3D%22Signal%20HidePlayerShips%22%20style%3D%22text%3BstrokeColor%3Dnone%3BfillColor%3Dnone%3Balign%3Dleft%3BverticalAlign%3Dtop%3BspacingLeft%3D4%3BspacingRight%3D4%3Boverflow%3Dhidden%3Brotatable%3D0%3Bpoints%3D%5B%5B0%2C0.5%5D%2C%5B1%2C0.5%5D%5D%3BportConstraint%3Deastwest%3BwhiteSpace%3Dwrap%3Bhtml%3D1%3B%22%20vertex%3D%221%22%20parent%3D%221%22%3E%3CmxGeometry%20x%3D%22280%22%20y%3D%221109%22%20width%3D%22340%22%20height%3D%2226%22%20as%3D%22geometry%22%2F%3E%3C%2FmxCell%3E%3C%2Froot%3E%3C%2FmxGraphModel%3E&lt;/span&gt;" style="text;strokeColor=none;fillColor=none;align=left;verticalAlign=top;spacingLeft=4;spacingRight=4;overflow=hidden;rotatable=0;points=[[0,0.5],[1,0.5]];portConstraint=eastwest;whiteSpace=wrap;html=1;" vertex="1" parent="BO4RsrXT0FEhWMIk0yd--62">
          <mxGeometry y="78" width="440" height="26" as="geometry" />
        </mxCell>
        <mxCell id="BO4RsrXT0FEhWMIk0yd--68" value="Signal MenuCloseMap" style="text;strokeColor=none;fillColor=none;align=left;verticalAlign=top;spacingLeft=4;spacingRight=4;overflow=hidden;rotatable=0;points=[[0,0.5],[1,0.5]];portConstraint=eastwest;whiteSpace=wrap;html=1;" vertex="1" parent="BO4RsrXT0FEhWMIk0yd--62">
          <mxGeometry y="104" width="440" height="26" as="geometry" />
        </mxCell>
        <mxCell id="BO4RsrXT0FEhWMIk0yd--69" value="Signal MenuOpenShips" style="text;strokeColor=none;fillColor=none;align=left;verticalAlign=top;spacingLeft=4;spacingRight=4;overflow=hidden;rotatable=0;points=[[0,0.5],[1,0.5]];portConstraint=eastwest;whiteSpace=wrap;html=1;" vertex="1" parent="BO4RsrXT0FEhWMIk0yd--62">
          <mxGeometry y="130" width="440" height="26" as="geometry" />
        </mxCell>
        <mxCell id="BO4RsrXT0FEhWMIk0yd--70" value="Signal MenuCloseShips" style="text;strokeColor=none;fillColor=none;align=left;verticalAlign=top;spacingLeft=4;spacingRight=4;overflow=hidden;rotatable=0;points=[[0,0.5],[1,0.5]];portConstraint=eastwest;whiteSpace=wrap;html=1;" vertex="1" parent="BO4RsrXT0FEhWMIk0yd--62">
          <mxGeometry y="156" width="440" height="26" as="geometry" />
        </mxCell>
        <mxCell id="BO4RsrXT0FEhWMIk0yd--74" value="private bool _playerBoard" style="text;strokeColor=none;fillColor=none;align=left;verticalAlign=top;spacingLeft=4;spacingRight=4;overflow=hidden;rotatable=0;points=[[0,0.5],[1,0.5]];portConstraint=eastwest;whiteSpace=wrap;html=1;" vertex="1" parent="BO4RsrXT0FEhWMIk0yd--62">
          <mxGeometry y="182" width="440" height="26" as="geometry" />
        </mxCell>
        <mxCell id="BO4RsrXT0FEhWMIk0yd--64" value="" style="line;strokeWidth=1;fillColor=none;align=left;verticalAlign=middle;spacingTop=-1;spacingLeft=3;spacingRight=3;rotatable=0;labelPosition=right;points=[];portConstraint=eastwest;strokeColor=inherit;" vertex="1" parent="BO4RsrXT0FEhWMIk0yd--62">
          <mxGeometry y="208" width="440" height="8" as="geometry" />
        </mxCell>
        <mxCell id="BO4RsrXT0FEhWMIk0yd--65" value="public Vector2 GetGameFieldPosition()" style="text;strokeColor=none;fillColor=none;align=left;verticalAlign=top;spacingLeft=4;spacingRight=4;overflow=hidden;rotatable=0;points=[[0,0.5],[1,0.5]];portConstraint=eastwest;whiteSpace=wrap;html=1;" vertex="1" parent="BO4RsrXT0FEhWMIk0yd--62">
          <mxGeometry y="216" width="440" height="26" as="geometry" />
        </mxCell>
        <mxCell id="BO4RsrXT0FEhWMIk0yd--75" value="public Vector2 GetGameFieldSize()" style="text;strokeColor=none;fillColor=none;align=left;verticalAlign=top;spacingLeft=4;spacingRight=4;overflow=hidden;rotatable=0;points=[[0,0.5],[1,0.5]];portConstraint=eastwest;whiteSpace=wrap;html=1;" vertex="1" parent="BO4RsrXT0FEhWMIk0yd--62">
          <mxGeometry y="242" width="440" height="26" as="geometry" />
        </mxCell>
        <mxCell id="BO4RsrXT0FEhWMIk0yd--76" value="public Vector2 GetSpawnPosition()" style="text;strokeColor=none;fillColor=none;align=left;verticalAlign=top;spacingLeft=4;spacingRight=4;overflow=hidden;rotatable=0;points=[[0,0.5],[1,0.5]];portConstraint=eastwest;whiteSpace=wrap;html=1;" vertex="1" parent="BO4RsrXT0FEhWMIk0yd--62">
          <mxGeometry y="268" width="440" height="26" as="geometry" />
        </mxCell>
        <mxCell id="BO4RsrXT0FEhWMIk0yd--77" value="private void OpenBrakeMenuPressed()&lt;span style=&quot;color: rgba(0, 0, 0, 0); font-family: monospace; font-size: 0px; text-wrap-mode: nowrap;&quot;&gt;%3CmxGraphModel%3E%3Croot%3E%3CmxCell%20id%3D%220%22%2F%3E%3CmxCell%20id%3D%221%22%20parent%3D%220%22%2F%3E%3CmxCell%20id%3D%222%22%20value%3D%22public%20Vector2%20GetSpawnPosition()%22%20style%3D%22text%3BstrokeColor%3Dnone%3BfillColor%3Dnone%3Balign%3Dleft%3BverticalAlign%3Dtop%3BspacingLeft%3D4%3BspacingRight%3D4%3Boverflow%3Dhidden%3Brotatable%3D0%3Bpoints%3D%5B%5B0%2C0.5%5D%2C%5B1%2C0.5%5D%5D%3BportConstraint%3Deastwest%3BwhiteSpace%3Dwrap%3Bhtml%3D1%3B%22%20vertex%3D%221%22%20parent%3D%221%22%3E%3CmxGeometry%20x%3D%22280%22%20y%3D%221351%22%20width%3D%22440%22%20height%3D%2226%22%20as%3D%22geometry%22%2F%3E%3C%2FmxCell%3E%3C%2Froot%3E%3C%2FmxGraphModel%3E&lt;/span&gt;" style="text;strokeColor=none;fillColor=none;align=left;verticalAlign=top;spacingLeft=4;spacingRight=4;overflow=hidden;rotatable=0;points=[[0,0.5],[1,0.5]];portConstraint=eastwest;whiteSpace=wrap;html=1;" vertex="1" parent="BO4RsrXT0FEhWMIk0yd--62">
          <mxGeometry y="294" width="440" height="26" as="geometry" />
        </mxCell>
        <mxCell id="BO4RsrXT0FEhWMIk0yd--78" value="private void CloseBreakMenu()" style="text;strokeColor=none;fillColor=none;align=left;verticalAlign=top;spacingLeft=4;spacingRight=4;overflow=hidden;rotatable=0;points=[[0,0.5],[1,0.5]];portConstraint=eastwest;whiteSpace=wrap;html=1;" vertex="1" parent="BO4RsrXT0FEhWMIk0yd--62">
          <mxGeometry y="320" width="440" height="26" as="geometry" />
        </mxCell>
        <mxCell id="BO4RsrXT0FEhWMIk0yd--79" value="private void OnSwitchBoardButtonPressed()" style="text;strokeColor=none;fillColor=none;align=left;verticalAlign=top;spacingLeft=4;spacingRight=4;overflow=hidden;rotatable=0;points=[[0,0.5],[1,0.5]];portConstraint=eastwest;whiteSpace=wrap;html=1;" vertex="1" parent="BO4RsrXT0FEhWMIk0yd--62">
          <mxGeometry y="346" width="440" height="26" as="geometry" />
        </mxCell>
        <mxCell id="BO4RsrXT0FEhWMIk0yd--80" value="private void PlacementFinishedPressed()" style="text;strokeColor=none;fillColor=none;align=left;verticalAlign=top;spacingLeft=4;spacingRight=4;overflow=hidden;rotatable=0;points=[[0,0.5],[1,0.5]];portConstraint=eastwest;whiteSpace=wrap;html=1;" vertex="1" parent="BO4RsrXT0FEhWMIk0yd--62">
          <mxGeometry y="372" width="440" height="26" as="geometry" />
        </mxCell>
        <mxCell id="BO4RsrXT0FEhWMIk0yd--81" value="StartMenu" style="swimlane;fontStyle=1;align=center;verticalAlign=top;childLayout=stackLayout;horizontal=1;startSize=26;horizontalStack=0;resizeParent=1;resizeParentMax=0;resizeLast=0;collapsible=1;marginBottom=0;whiteSpace=wrap;html=1;" vertex="1" parent="WIyWlLk6GJQsqaUBKTNV-1">
          <mxGeometry x="920" y="1080" width="400" height="138" as="geometry" />
        </mxCell>
        <mxCell id="BO4RsrXT0FEhWMIk0yd--83" value="" style="line;strokeWidth=1;fillColor=none;align=left;verticalAlign=middle;spacingTop=-1;spacingLeft=3;spacingRight=3;rotatable=0;labelPosition=right;points=[];portConstraint=eastwest;strokeColor=inherit;" vertex="1" parent="BO4RsrXT0FEhWMIk0yd--81">
          <mxGeometry y="26" width="400" height="8" as="geometry" />
        </mxCell>
        <mxCell id="BO4RsrXT0FEhWMIk0yd--84" value="private void OnOpenShipsSelectorButtonPressed()" style="text;strokeColor=none;fillColor=none;align=left;verticalAlign=top;spacingLeft=4;spacingRight=4;overflow=hidden;rotatable=0;points=[[0,0.5],[1,0.5]];portConstraint=eastwest;whiteSpace=wrap;html=1;" vertex="1" parent="BO4RsrXT0FEhWMIk0yd--81">
          <mxGeometry y="34" width="400" height="26" as="geometry" />
        </mxCell>
        <mxCell id="BO4RsrXT0FEhWMIk0yd--85" value="private void OnOpenSettingsButtonPressed()" style="text;strokeColor=none;fillColor=none;align=left;verticalAlign=top;spacingLeft=4;spacingRight=4;overflow=hidden;rotatable=0;points=[[0,0.5],[1,0.5]];portConstraint=eastwest;whiteSpace=wrap;html=1;" vertex="1" parent="BO4RsrXT0FEhWMIk0yd--81">
          <mxGeometry y="60" width="400" height="26" as="geometry" />
        </mxCell>
        <mxCell id="BO4RsrXT0FEhWMIk0yd--87" value="private void OnOpenCreditsButtonPressed()" style="text;strokeColor=none;fillColor=none;align=left;verticalAlign=top;spacingLeft=4;spacingRight=4;overflow=hidden;rotatable=0;points=[[0,0.5],[1,0.5]];portConstraint=eastwest;whiteSpace=wrap;html=1;" vertex="1" parent="BO4RsrXT0FEhWMIk0yd--81">
          <mxGeometry y="86" width="400" height="26" as="geometry" />
        </mxCell>
        <mxCell id="BO4RsrXT0FEhWMIk0yd--86" value="private void CloseGameButtonPressed()" style="text;strokeColor=none;fillColor=none;align=left;verticalAlign=top;spacingLeft=4;spacingRight=4;overflow=hidden;rotatable=0;points=[[0,0.5],[1,0.5]];portConstraint=eastwest;whiteSpace=wrap;html=1;" vertex="1" parent="BO4RsrXT0FEhWMIk0yd--81">
          <mxGeometry y="112" width="400" height="26" as="geometry" />
        </mxCell>
        <mxCell id="BO4RsrXT0FEhWMIk0yd--88" value="BreakMenuScene" style="swimlane;fontStyle=1;align=center;verticalAlign=top;childLayout=stackLayout;horizontal=1;startSize=26;horizontalStack=0;resizeParent=1;resizeParentMax=0;resizeLast=0;collapsible=1;marginBottom=0;whiteSpace=wrap;html=1;" vertex="1" parent="WIyWlLk6GJQsqaUBKTNV-1">
          <mxGeometry x="1610" y="1080" width="300" height="164" as="geometry" />
        </mxCell>
        <mxCell id="BO4RsrXT0FEhWMIk0yd--89" value="Signal BreakMenuClose" style="text;strokeColor=none;fillColor=none;align=left;verticalAlign=top;spacingLeft=4;spacingRight=4;overflow=hidden;rotatable=0;points=[[0,0.5],[1,0.5]];portConstraint=eastwest;whiteSpace=wrap;html=1;" vertex="1" parent="BO4RsrXT0FEhWMIk0yd--88">
          <mxGeometry y="26" width="300" height="26" as="geometry" />
        </mxCell>
        <mxCell id="BO4RsrXT0FEhWMIk0yd--90" value="" style="line;strokeWidth=1;fillColor=none;align=left;verticalAlign=middle;spacingTop=-1;spacingLeft=3;spacingRight=3;rotatable=0;labelPosition=right;points=[];portConstraint=eastwest;strokeColor=inherit;" vertex="1" parent="BO4RsrXT0FEhWMIk0yd--88">
          <mxGeometry y="52" width="300" height="8" as="geometry" />
        </mxCell>
        <mxCell id="BO4RsrXT0FEhWMIk0yd--91" value="private void OnRestartButtonPressed()" style="text;strokeColor=none;fillColor=none;align=left;verticalAlign=top;spacingLeft=4;spacingRight=4;overflow=hidden;rotatable=0;points=[[0,0.5],[1,0.5]];portConstraint=eastwest;whiteSpace=wrap;html=1;" vertex="1" parent="BO4RsrXT0FEhWMIk0yd--88">
          <mxGeometry y="60" width="300" height="26" as="geometry" />
        </mxCell>
        <mxCell id="BO4RsrXT0FEhWMIk0yd--92" value="private void OnReturnToMainMenuButtonPressed()" style="text;strokeColor=none;fillColor=none;align=left;verticalAlign=top;spacingLeft=4;spacingRight=4;overflow=hidden;rotatable=0;points=[[0,0.5],[1,0.5]];portConstraint=eastwest;whiteSpace=wrap;html=1;" vertex="1" parent="BO4RsrXT0FEhWMIk0yd--88">
          <mxGeometry y="86" width="300" height="26" as="geometry" />
        </mxCell>
        <mxCell id="BO4RsrXT0FEhWMIk0yd--93" value="private void OnSettingstButtonPressed()" style="text;strokeColor=none;fillColor=none;align=left;verticalAlign=top;spacingLeft=4;spacingRight=4;overflow=hidden;rotatable=0;points=[[0,0.5],[1,0.5]];portConstraint=eastwest;whiteSpace=wrap;html=1;" vertex="1" parent="BO4RsrXT0FEhWMIk0yd--88">
          <mxGeometry y="112" width="300" height="26" as="geometry" />
        </mxCell>
        <mxCell id="BO4RsrXT0FEhWMIk0yd--94" value="private void CloseGameButtonPressed()" style="text;strokeColor=none;fillColor=none;align=left;verticalAlign=top;spacingLeft=4;spacingRight=4;overflow=hidden;rotatable=0;points=[[0,0.5],[1,0.5]];portConstraint=eastwest;whiteSpace=wrap;html=1;" vertex="1" parent="BO4RsrXT0FEhWMIk0yd--88">
          <mxGeometry y="138" width="300" height="26" as="geometry" />
        </mxCell>
        <mxCell id="BO4RsrXT0FEhWMIk0yd--95" value="ChoseShipScene" style="swimlane;fontStyle=1;align=center;verticalAlign=top;childLayout=stackLayout;horizontal=1;startSize=26;horizontalStack=0;resizeParent=1;resizeParentMax=0;resizeLast=0;collapsible=1;marginBottom=0;whiteSpace=wrap;html=1;" vertex="1" parent="WIyWlLk6GJQsqaUBKTNV-1">
          <mxGeometry x="840" y="1340" width="270" height="294" as="geometry" />
        </mxCell>
        <mxCell id="BO4RsrXT0FEhWMIk0yd--96" value="private Label&amp;nbsp; _classOfShip&lt;div&gt;&lt;br&gt;&lt;/div&gt;" style="text;strokeColor=none;fillColor=none;align=left;verticalAlign=top;spacingLeft=4;spacingRight=4;overflow=hidden;rotatable=0;points=[[0,0.5],[1,0.5]];portConstraint=eastwest;whiteSpace=wrap;html=1;" vertex="1" parent="BO4RsrXT0FEhWMIk0yd--95">
          <mxGeometry y="26" width="270" height="26" as="geometry" />
        </mxCell>
        <mxCell id="BO4RsrXT0FEhWMIk0yd--99" value="private Label&amp;nbsp; _lifeOfShip&lt;div&gt;&lt;br&gt;&lt;/div&gt;" style="text;strokeColor=none;fillColor=none;align=left;verticalAlign=top;spacingLeft=4;spacingRight=4;overflow=hidden;rotatable=0;points=[[0,0.5],[1,0.5]];portConstraint=eastwest;whiteSpace=wrap;html=1;" vertex="1" parent="BO4RsrXT0FEhWMIk0yd--95">
          <mxGeometry y="52" width="270" height="26" as="geometry" />
        </mxCell>
        <mxCell id="BO4RsrXT0FEhWMIk0yd--100" value="private Label&amp;nbsp; _specialAttackShip&lt;div&gt;&lt;br&gt;&lt;/div&gt;" style="text;strokeColor=none;fillColor=none;align=left;verticalAlign=top;spacingLeft=4;spacingRight=4;overflow=hidden;rotatable=0;points=[[0,0.5],[1,0.5]];portConstraint=eastwest;whiteSpace=wrap;html=1;" vertex="1" parent="BO4RsrXT0FEhWMIk0yd--95">
          <mxGeometry y="78" width="270" height="26" as="geometry" />
        </mxCell>
        <mxCell id="BO4RsrXT0FEhWMIk0yd--101" value="private Label&amp;nbsp; _notesShip&lt;div&gt;&lt;br&gt;&lt;/div&gt;" style="text;strokeColor=none;fillColor=none;align=left;verticalAlign=top;spacingLeft=4;spacingRight=4;overflow=hidden;rotatable=0;points=[[0,0.5],[1,0.5]];portConstraint=eastwest;whiteSpace=wrap;html=1;" vertex="1" parent="BO4RsrXT0FEhWMIk0yd--95">
          <mxGeometry y="104" width="270" height="26" as="geometry" />
        </mxCell>
        <mxCell id="BO4RsrXT0FEhWMIk0yd--102" value="private Button&amp;nbsp; _backToMenuButton&lt;div&gt;&lt;br&gt;&lt;/div&gt;" style="text;strokeColor=none;fillColor=none;align=left;verticalAlign=top;spacingLeft=4;spacingRight=4;overflow=hidden;rotatable=0;points=[[0,0.5],[1,0.5]];portConstraint=eastwest;whiteSpace=wrap;html=1;" vertex="1" parent="BO4RsrXT0FEhWMIk0yd--95">
          <mxGeometry y="130" width="270" height="26" as="geometry" />
        </mxCell>
        <mxCell id="BO4RsrXT0FEhWMIk0yd--103" value="private Button&amp;nbsp; _startGameButton&lt;div&gt;&lt;br&gt;&lt;/div&gt;" style="text;strokeColor=none;fillColor=none;align=left;verticalAlign=top;spacingLeft=4;spacingRight=4;overflow=hidden;rotatable=0;points=[[0,0.5],[1,0.5]];portConstraint=eastwest;whiteSpace=wrap;html=1;" vertex="1" parent="BO4RsrXT0FEhWMIk0yd--95">
          <mxGeometry y="156" width="270" height="26" as="geometry" />
        </mxCell>
        <mxCell id="BO4RsrXT0FEhWMIk0yd--97" value="" style="line;strokeWidth=1;fillColor=none;align=left;verticalAlign=middle;spacingTop=-1;spacingLeft=3;spacingRight=3;rotatable=0;labelPosition=right;points=[];portConstraint=eastwest;strokeColor=inherit;" vertex="1" parent="BO4RsrXT0FEhWMIk0yd--95">
          <mxGeometry y="182" width="270" height="8" as="geometry" />
        </mxCell>
        <mxCell id="BO4RsrXT0FEhWMIk0yd--124" value="public void _Ready()" style="text;strokeColor=none;fillColor=none;align=left;verticalAlign=top;spacingLeft=4;spacingRight=4;overflow=hidden;rotatable=0;points=[[0,0.5],[1,0.5]];portConstraint=eastwest;whiteSpace=wrap;html=1;" vertex="1" parent="BO4RsrXT0FEhWMIk0yd--95">
          <mxGeometry y="190" width="270" height="26" as="geometry" />
        </mxCell>
        <mxCell id="BO4RsrXT0FEhWMIk0yd--105" value="private void SetRequiredDependencies()" style="text;strokeColor=none;fillColor=none;align=left;verticalAlign=top;spacingLeft=4;spacingRight=4;overflow=hidden;rotatable=0;points=[[0,0.5],[1,0.5]];portConstraint=eastwest;whiteSpace=wrap;html=1;" vertex="1" parent="BO4RsrXT0FEhWMIk0yd--95">
          <mxGeometry y="216" width="270" height="26" as="geometry" />
        </mxCell>
        <mxCell id="BO4RsrXT0FEhWMIk0yd--98" value="private void OnBackToMenuPressed()" style="text;strokeColor=none;fillColor=none;align=left;verticalAlign=top;spacingLeft=4;spacingRight=4;overflow=hidden;rotatable=0;points=[[0,0.5],[1,0.5]];portConstraint=eastwest;whiteSpace=wrap;html=1;" vertex="1" parent="BO4RsrXT0FEhWMIk0yd--95">
          <mxGeometry y="242" width="270" height="26" as="geometry" />
        </mxCell>
        <mxCell id="BO4RsrXT0FEhWMIk0yd--104" value="private void OnStartGameButtonPressed()" style="text;strokeColor=none;fillColor=none;align=left;verticalAlign=top;spacingLeft=4;spacingRight=4;overflow=hidden;rotatable=0;points=[[0,0.5],[1,0.5]];portConstraint=eastwest;whiteSpace=wrap;html=1;" vertex="1" parent="BO4RsrXT0FEhWMIk0yd--95">
          <mxGeometry y="268" width="270" height="26" as="geometry" />
        </mxCell>
        <mxCell id="BO4RsrXT0FEhWMIk0yd--106" style="edgeStyle=orthogonalEdgeStyle;rounded=0;orthogonalLoop=1;jettySize=auto;html=1;exitX=0;exitY=0.5;exitDx=0;exitDy=0;entryX=0.5;entryY=0;entryDx=0;entryDy=0;" edge="1" parent="WIyWlLk6GJQsqaUBKTNV-1" source="BO4RsrXT0FEhWMIk0yd--84" target="BO4RsrXT0FEhWMIk0yd--95">
          <mxGeometry relative="1" as="geometry">
            <Array as="points">
              <mxPoint x="900" y="1127" />
              <mxPoint x="900" y="1250" />
              <mxPoint x="975" y="1250" />
            </Array>
          </mxGeometry>
        </mxCell>
        <mxCell id="BO4RsrXT0FEhWMIk0yd--107" value="CreditsScene" style="swimlane;fontStyle=1;align=center;verticalAlign=top;childLayout=stackLayout;horizontal=1;startSize=26;horizontalStack=0;resizeParent=1;resizeParentMax=0;resizeLast=0;collapsible=1;marginBottom=0;whiteSpace=wrap;html=1;" vertex="1" parent="WIyWlLk6GJQsqaUBKTNV-1">
          <mxGeometry x="1160" y="1481" width="370" height="60" as="geometry" />
        </mxCell>
        <mxCell id="BO4RsrXT0FEhWMIk0yd--109" value="" style="line;strokeWidth=1;fillColor=none;align=left;verticalAlign=middle;spacingTop=-1;spacingLeft=3;spacingRight=3;rotatable=0;labelPosition=right;points=[];portConstraint=eastwest;strokeColor=inherit;" vertex="1" parent="BO4RsrXT0FEhWMIk0yd--107">
          <mxGeometry y="26" width="370" height="8" as="geometry" />
        </mxCell>
        <mxCell id="BO4RsrXT0FEhWMIk0yd--110" value="private void OnBackToMainMenuButtonPressed" style="text;strokeColor=none;fillColor=none;align=left;verticalAlign=top;spacingLeft=4;spacingRight=4;overflow=hidden;rotatable=0;points=[[0,0.5],[1,0.5]];portConstraint=eastwest;whiteSpace=wrap;html=1;" vertex="1" parent="BO4RsrXT0FEhWMIk0yd--107">
          <mxGeometry y="34" width="370" height="26" as="geometry" />
        </mxCell>
        <mxCell id="BO4RsrXT0FEhWMIk0yd--111" style="edgeStyle=orthogonalEdgeStyle;rounded=0;orthogonalLoop=1;jettySize=auto;html=1;exitX=1;exitY=0.5;exitDx=0;exitDy=0;entryX=0.5;entryY=0;entryDx=0;entryDy=0;" edge="1" parent="WIyWlLk6GJQsqaUBKTNV-1" source="BO4RsrXT0FEhWMIk0yd--87" target="BO4RsrXT0FEhWMIk0yd--107">
          <mxGeometry relative="1" as="geometry" />
        </mxCell>
        <mxCell id="BO4RsrXT0FEhWMIk0yd--112" value="SettingsScene" style="swimlane;fontStyle=1;align=center;verticalAlign=top;childLayout=stackLayout;horizontal=1;startSize=26;horizontalStack=0;resizeParent=1;resizeParentMax=0;resizeLast=0;collapsible=1;marginBottom=0;whiteSpace=wrap;html=1;" vertex="1" parent="WIyWlLk6GJQsqaUBKTNV-1">
          <mxGeometry x="1580" y="1360" width="370" height="60" as="geometry" />
        </mxCell>
        <mxCell id="BO4RsrXT0FEhWMIk0yd--113" value="" style="line;strokeWidth=1;fillColor=none;align=left;verticalAlign=middle;spacingTop=-1;spacingLeft=3;spacingRight=3;rotatable=0;labelPosition=right;points=[];portConstraint=eastwest;strokeColor=inherit;" vertex="1" parent="BO4RsrXT0FEhWMIk0yd--112">
          <mxGeometry y="26" width="370" height="8" as="geometry" />
        </mxCell>
        <mxCell id="BO4RsrXT0FEhWMIk0yd--114" value="private void OnBackToMainMenuButtonPressed" style="text;strokeColor=none;fillColor=none;align=left;verticalAlign=top;spacingLeft=4;spacingRight=4;overflow=hidden;rotatable=0;points=[[0,0.5],[1,0.5]];portConstraint=eastwest;whiteSpace=wrap;html=1;" vertex="1" parent="BO4RsrXT0FEhWMIk0yd--112">
          <mxGeometry y="34" width="370" height="26" as="geometry" />
        </mxCell>
        <mxCell id="BO4RsrXT0FEhWMIk0yd--115" style="edgeStyle=orthogonalEdgeStyle;rounded=0;orthogonalLoop=1;jettySize=auto;html=1;exitX=1;exitY=0.5;exitDx=0;exitDy=0;entryX=0.5;entryY=0;entryDx=0;entryDy=0;" edge="1" parent="WIyWlLk6GJQsqaUBKTNV-1" source="BO4RsrXT0FEhWMIk0yd--110" target="BO4RsrXT0FEhWMIk0yd--81">
          <mxGeometry relative="1" as="geometry" />
        </mxCell>
        <mxCell id="BO4RsrXT0FEhWMIk0yd--116" style="edgeStyle=orthogonalEdgeStyle;rounded=0;orthogonalLoop=1;jettySize=auto;html=1;exitX=1;exitY=0.5;exitDx=0;exitDy=0;entryX=0.5;entryY=0;entryDx=0;entryDy=0;" edge="1" parent="WIyWlLk6GJQsqaUBKTNV-1" source="BO4RsrXT0FEhWMIk0yd--110" target="BO4RsrXT0FEhWMIk0yd--88">
          <mxGeometry relative="1" as="geometry">
            <Array as="points">
              <mxPoint x="1550" y="1528" />
              <mxPoint x="1550" y="1060" />
              <mxPoint x="1760" y="1060" />
            </Array>
          </mxGeometry>
        </mxCell>
        <mxCell id="BO4RsrXT0FEhWMIk0yd--117" style="edgeStyle=orthogonalEdgeStyle;rounded=0;orthogonalLoop=1;jettySize=auto;html=1;exitX=0;exitY=0.5;exitDx=0;exitDy=0;entryX=0.5;entryY=0;entryDx=0;entryDy=0;" edge="1" parent="WIyWlLk6GJQsqaUBKTNV-1" source="BO4RsrXT0FEhWMIk0yd--98" target="BO4RsrXT0FEhWMIk0yd--81">
          <mxGeometry relative="1" as="geometry" />
        </mxCell>
        <mxCell id="BO4RsrXT0FEhWMIk0yd--118" style="edgeStyle=orthogonalEdgeStyle;rounded=0;orthogonalLoop=1;jettySize=auto;html=1;exitX=1;exitY=0.5;exitDx=0;exitDy=0;entryX=0.5;entryY=0;entryDx=0;entryDy=0;" edge="1" parent="WIyWlLk6GJQsqaUBKTNV-1" source="BO4RsrXT0FEhWMIk0yd--85" target="BO4RsrXT0FEhWMIk0yd--112">
          <mxGeometry relative="1" as="geometry">
            <Array as="points">
              <mxPoint x="1450" y="1153" />
              <mxPoint x="1450" y="1320" />
              <mxPoint x="1765" y="1320" />
            </Array>
          </mxGeometry>
        </mxCell>
        <mxCell id="BO4RsrXT0FEhWMIk0yd--119" style="edgeStyle=orthogonalEdgeStyle;rounded=0;orthogonalLoop=1;jettySize=auto;html=1;exitX=0;exitY=0.5;exitDx=0;exitDy=0;entryX=0.5;entryY=0;entryDx=0;entryDy=0;" edge="1" parent="WIyWlLk6GJQsqaUBKTNV-1" source="BO4RsrXT0FEhWMIk0yd--93" target="BO4RsrXT0FEhWMIk0yd--112">
          <mxGeometry relative="1" as="geometry">
            <Array as="points">
              <mxPoint x="1590" y="1205" />
              <mxPoint x="1590" y="1320" />
              <mxPoint x="1765" y="1320" />
            </Array>
          </mxGeometry>
        </mxCell>
        <mxCell id="BO4RsrXT0FEhWMIk0yd--120" style="edgeStyle=orthogonalEdgeStyle;rounded=0;orthogonalLoop=1;jettySize=auto;html=1;exitX=1;exitY=0.5;exitDx=0;exitDy=0;entryX=0.5;entryY=0;entryDx=0;entryDy=0;" edge="1" parent="WIyWlLk6GJQsqaUBKTNV-1" source="BO4RsrXT0FEhWMIk0yd--114" target="BO4RsrXT0FEhWMIk0yd--88">
          <mxGeometry relative="1" as="geometry">
            <Array as="points">
              <mxPoint x="1970" y="1407" />
              <mxPoint x="1970" y="1000" />
              <mxPoint x="1760" y="1000" />
            </Array>
          </mxGeometry>
        </mxCell>
        <mxCell id="BO4RsrXT0FEhWMIk0yd--121" style="edgeStyle=orthogonalEdgeStyle;rounded=0;orthogonalLoop=1;jettySize=auto;html=1;exitX=1;exitY=0.5;exitDx=0;exitDy=0;entryX=0.5;entryY=0;entryDx=0;entryDy=0;" edge="1" parent="WIyWlLk6GJQsqaUBKTNV-1" source="BO4RsrXT0FEhWMIk0yd--114" target="BO4RsrXT0FEhWMIk0yd--81">
          <mxGeometry relative="1" as="geometry">
            <Array as="points">
              <mxPoint x="1970" y="1407" />
              <mxPoint x="1970" y="1000" />
              <mxPoint x="1120" y="1000" />
            </Array>
          </mxGeometry>
        </mxCell>
        <mxCell id="BO4RsrXT0FEhWMIk0yd--125" value="EnemyAIManager" style="swimlane;fontStyle=1;align=center;verticalAlign=top;childLayout=stackLayout;horizontal=1;startSize=26;horizontalStack=0;resizeParent=1;resizeParentMax=0;resizeLast=0;collapsible=1;marginBottom=0;whiteSpace=wrap;html=1;" vertex="1" parent="WIyWlLk6GJQsqaUBKTNV-1">
          <mxGeometry x="320" y="1680" width="300" height="476" as="geometry" />
        </mxCell>
        <mxCell id="BO4RsrXT0FEhWMIk0yd--126" value="Signal EnemyTurnFinished" style="text;strokeColor=none;fillColor=none;align=left;verticalAlign=top;spacingLeft=4;spacingRight=4;overflow=hidden;rotatable=0;points=[[0,0.5],[1,0.5]];portConstraint=eastwest;whiteSpace=wrap;html=1;" vertex="1" parent="BO4RsrXT0FEhWMIk0yd--125">
          <mxGeometry y="26" width="300" height="26" as="geometry" />
        </mxCell>
        <mxCell id="BO4RsrXT0FEhWMIk0yd--129" value="Signal Attack" style="text;strokeColor=none;fillColor=none;align=left;verticalAlign=top;spacingLeft=4;spacingRight=4;overflow=hidden;rotatable=0;points=[[0,0.5],[1,0.5]];portConstraint=eastwest;whiteSpace=wrap;html=1;" vertex="1" parent="BO4RsrXT0FEhWMIk0yd--125">
          <mxGeometry y="52" width="300" height="26" as="geometry" />
        </mxCell>
        <mxCell id="BO4RsrXT0FEhWMIk0yd--130" value="Signal SetAttackParameters" style="text;strokeColor=none;fillColor=none;align=left;verticalAlign=top;spacingLeft=4;spacingRight=4;overflow=hidden;rotatable=0;points=[[0,0.5],[1,0.5]];portConstraint=eastwest;whiteSpace=wrap;html=1;" vertex="1" parent="BO4RsrXT0FEhWMIk0yd--125">
          <mxGeometry y="78" width="300" height="26" as="geometry" />
        </mxCell>
        <mxCell id="BO4RsrXT0FEhWMIk0yd--131" value="private List&amp;lt;Ship&amp;gt; _currentShips" style="text;strokeColor=none;fillColor=none;align=left;verticalAlign=top;spacingLeft=4;spacingRight=4;overflow=hidden;rotatable=0;points=[[0,0.5],[1,0.5]];portConstraint=eastwest;whiteSpace=wrap;html=1;" vertex="1" parent="BO4RsrXT0FEhWMIk0yd--125">
          <mxGeometry y="104" width="300" height="26" as="geometry" />
        </mxCell>
        <mxCell id="BO4RsrXT0FEhWMIk0yd--133" value="private PlayerBoardManager _playerBoardManager" style="text;strokeColor=none;fillColor=none;align=left;verticalAlign=top;spacingLeft=4;spacingRight=4;overflow=hidden;rotatable=0;points=[[0,0.5],[1,0.5]];portConstraint=eastwest;whiteSpace=wrap;html=1;" vertex="1" parent="BO4RsrXT0FEhWMIk0yd--125">
          <mxGeometry y="130" width="300" height="26" as="geometry" />
        </mxCell>
        <mxCell id="BO4RsrXT0FEhWMIk0yd--134" value="private EnemyBoardManager _enemyBoardManager" style="text;strokeColor=none;fillColor=none;align=left;verticalAlign=top;spacingLeft=4;spacingRight=4;overflow=hidden;rotatable=0;points=[[0,0.5],[1,0.5]];portConstraint=eastwest;whiteSpace=wrap;html=1;" vertex="1" parent="BO4RsrXT0FEhWMIk0yd--125">
          <mxGeometry y="156" width="300" height="26" as="geometry" />
        </mxCell>
        <mxCell id="BO4RsrXT0FEhWMIk0yd--132" value="private int&amp;nbsp; _currentFightingForce" style="text;strokeColor=none;fillColor=none;align=left;verticalAlign=top;spacingLeft=4;spacingRight=4;overflow=hidden;rotatable=0;points=[[0,0.5],[1,0.5]];portConstraint=eastwest;whiteSpace=wrap;html=1;" vertex="1" parent="BO4RsrXT0FEhWMIk0yd--125">
          <mxGeometry y="182" width="300" height="26" as="geometry" />
        </mxCell>
        <mxCell id="BO4RsrXT0FEhWMIk0yd--135" value="private int&amp;nbsp; _currentBonus" style="text;strokeColor=none;fillColor=none;align=left;verticalAlign=top;spacingLeft=4;spacingRight=4;overflow=hidden;rotatable=0;points=[[0,0.5],[1,0.5]];portConstraint=eastwest;whiteSpace=wrap;html=1;" vertex="1" parent="BO4RsrXT0FEhWMIk0yd--125">
          <mxGeometry y="208" width="300" height="26" as="geometry" />
        </mxCell>
        <mxCell id="BO4RsrXT0FEhWMIk0yd--137" value="private EnemyShipPlacement _shipPlacement" style="text;strokeColor=none;fillColor=none;align=left;verticalAlign=top;spacingLeft=4;spacingRight=4;overflow=hidden;rotatable=0;points=[[0,0.5],[1,0.5]];portConstraint=eastwest;whiteSpace=wrap;html=1;" vertex="1" parent="BO4RsrXT0FEhWMIk0yd--125">
          <mxGeometry y="234" width="300" height="26" as="geometry" />
        </mxCell>
        <mxCell id="BO4RsrXT0FEhWMIk0yd--127" value="" style="line;strokeWidth=1;fillColor=none;align=left;verticalAlign=middle;spacingTop=-1;spacingLeft=3;spacingRight=3;rotatable=0;labelPosition=right;points=[];portConstraint=eastwest;strokeColor=inherit;" vertex="1" parent="BO4RsrXT0FEhWMIk0yd--125">
          <mxGeometry y="260" width="300" height="8" as="geometry" />
        </mxCell>
        <mxCell id="BO4RsrXT0FEhWMIk0yd--138" value="public void _Ready()" style="text;strokeColor=none;fillColor=none;align=left;verticalAlign=top;spacingLeft=4;spacingRight=4;overflow=hidden;rotatable=0;points=[[0,0.5],[1,0.5]];portConstraint=eastwest;whiteSpace=wrap;html=1;" vertex="1" parent="BO4RsrXT0FEhWMIk0yd--125">
          <mxGeometry y="268" width="300" height="26" as="geometry" />
        </mxCell>
        <mxCell id="BO4RsrXT0FEhWMIk0yd--139" value="private void SetRequiredDependencies()" style="text;strokeColor=none;fillColor=none;align=left;verticalAlign=top;spacingLeft=4;spacingRight=4;overflow=hidden;rotatable=0;points=[[0,0.5],[1,0.5]];portConstraint=eastwest;whiteSpace=wrap;html=1;" vertex="1" parent="BO4RsrXT0FEhWMIk0yd--125">
          <mxGeometry y="294" width="300" height="26" as="geometry" />
        </mxCell>
        <mxCell id="BO4RsrXT0FEhWMIk0yd--128" value="private void SetNewMatch()" style="text;strokeColor=none;fillColor=none;align=left;verticalAlign=top;spacingLeft=4;spacingRight=4;overflow=hidden;rotatable=0;points=[[0,0.5],[1,0.5]];portConstraint=eastwest;whiteSpace=wrap;html=1;" vertex="1" parent="BO4RsrXT0FEhWMIk0yd--125">
          <mxGeometry y="320" width="300" height="26" as="geometry" />
        </mxCell>
        <mxCell id="BO4RsrXT0FEhWMIk0yd--140" value="private void EnemyTurn()" style="text;strokeColor=none;fillColor=none;align=left;verticalAlign=top;spacingLeft=4;spacingRight=4;overflow=hidden;rotatable=0;points=[[0,0.5],[1,0.5]];portConstraint=eastwest;whiteSpace=wrap;html=1;" vertex="1" parent="BO4RsrXT0FEhWMIk0yd--125">
          <mxGeometry y="346" width="300" height="26" as="geometry" />
        </mxCell>
        <mxCell id="BO4RsrXT0FEhWMIk0yd--141" value="private UpdateFightingForce()" style="text;strokeColor=none;fillColor=none;align=left;verticalAlign=top;spacingLeft=4;spacingRight=4;overflow=hidden;rotatable=0;points=[[0,0.5],[1,0.5]];portConstraint=eastwest;whiteSpace=wrap;html=1;" vertex="1" parent="BO4RsrXT0FEhWMIk0yd--125">
          <mxGeometry y="372" width="300" height="26" as="geometry" />
        </mxCell>
        <mxCell id="BO4RsrXT0FEhWMIk0yd--142" value="private void UpdateCurrentBonus" style="text;strokeColor=none;fillColor=none;align=left;verticalAlign=top;spacingLeft=4;spacingRight=4;overflow=hidden;rotatable=0;points=[[0,0.5],[1,0.5]];portConstraint=eastwest;whiteSpace=wrap;html=1;" vertex="1" parent="BO4RsrXT0FEhWMIk0yd--125">
          <mxGeometry y="398" width="300" height="26" as="geometry" />
        </mxCell>
        <mxCell id="BO4RsrXT0FEhWMIk0yd--143" value="private void UpdateCurrentBonus" style="text;strokeColor=none;fillColor=none;align=left;verticalAlign=top;spacingLeft=4;spacingRight=4;overflow=hidden;rotatable=0;points=[[0,0.5],[1,0.5]];portConstraint=eastwest;whiteSpace=wrap;html=1;" vertex="1" parent="BO4RsrXT0FEhWMIk0yd--125">
          <mxGeometry y="424" width="300" height="26" as="geometry" />
        </mxCell>
        <mxCell id="BO4RsrXT0FEhWMIk0yd--144" value="public int GetCurrentShipCount()" style="text;strokeColor=none;fillColor=none;align=left;verticalAlign=top;spacingLeft=4;spacingRight=4;overflow=hidden;rotatable=0;points=[[0,0.5],[1,0.5]];portConstraint=eastwest;whiteSpace=wrap;html=1;" vertex="1" parent="BO4RsrXT0FEhWMIk0yd--125">
          <mxGeometry y="450" width="300" height="26" as="geometry" />
        </mxCell>
        <mxCell id="BO4RsrXT0FEhWMIk0yd--145" value="EnemyShipPlacement" style="swimlane;fontStyle=1;align=center;verticalAlign=top;childLayout=stackLayout;horizontal=1;startSize=26;horizontalStack=0;resizeParent=1;resizeParentMax=0;resizeLast=0;collapsible=1;marginBottom=0;whiteSpace=wrap;html=1;" vertex="1" parent="WIyWlLk6GJQsqaUBKTNV-1">
          <mxGeometry x="40" y="2200" width="360" height="242" as="geometry" />
        </mxCell>
        <mxCell id="BO4RsrXT0FEhWMIk0yd--150" value="privat Array&amp;lt;ShipBlueprint&amp;gt; _shipBlueprints" style="text;strokeColor=none;fillColor=none;align=left;verticalAlign=top;spacingLeft=4;spacingRight=4;overflow=hidden;rotatable=0;points=[[0,0.5],[1,0.5]];portConstraint=eastwest;whiteSpace=wrap;html=1;" vertex="1" parent="BO4RsrXT0FEhWMIk0yd--145">
          <mxGeometry y="26" width="360" height="26" as="geometry" />
        </mxCell>
        <mxCell id="BO4RsrXT0FEhWMIk0yd--151" value="private List&amp;lt;Ship&amp;gt; _currentShips" style="text;strokeColor=none;fillColor=none;align=left;verticalAlign=top;spacingLeft=4;spacingRight=4;overflow=hidden;rotatable=0;points=[[0,0.5],[1,0.5]];portConstraint=eastwest;whiteSpace=wrap;html=1;" vertex="1" parent="BO4RsrXT0FEhWMIk0yd--145">
          <mxGeometry y="52" width="360" height="26" as="geometry" />
        </mxCell>
        <mxCell id="BO4RsrXT0FEhWMIk0yd--146" value="private int[ , ] _board" style="text;strokeColor=none;fillColor=none;align=left;verticalAlign=top;spacingLeft=4;spacingRight=4;overflow=hidden;rotatable=0;points=[[0,0.5],[1,0.5]];portConstraint=eastwest;whiteSpace=wrap;html=1;" vertex="1" parent="BO4RsrXT0FEhWMIk0yd--145">
          <mxGeometry y="78" width="360" height="26" as="geometry" />
        </mxCell>
        <mxCell id="BO4RsrXT0FEhWMIk0yd--147" value="" style="line;strokeWidth=1;fillColor=none;align=left;verticalAlign=middle;spacingTop=-1;spacingLeft=3;spacingRight=3;rotatable=0;labelPosition=right;points=[];portConstraint=eastwest;strokeColor=inherit;" vertex="1" parent="BO4RsrXT0FEhWMIk0yd--145">
          <mxGeometry y="104" width="360" height="8" as="geometry" />
        </mxCell>
        <mxCell id="BO4RsrXT0FEhWMIk0yd--149" value="public void _Ready()" style="text;strokeColor=none;fillColor=none;align=left;verticalAlign=top;spacingLeft=4;spacingRight=4;overflow=hidden;rotatable=0;points=[[0,0.5],[1,0.5]];portConstraint=eastwest;whiteSpace=wrap;html=1;" vertex="1" parent="BO4RsrXT0FEhWMIk0yd--145">
          <mxGeometry y="112" width="360" height="26" as="geometry" />
        </mxCell>
        <mxCell id="BO4RsrXT0FEhWMIk0yd--148" value="private void ClearShip()" style="text;strokeColor=none;fillColor=none;align=left;verticalAlign=top;spacingLeft=4;spacingRight=4;overflow=hidden;rotatable=0;points=[[0,0.5],[1,0.5]];portConstraint=eastwest;whiteSpace=wrap;html=1;" vertex="1" parent="BO4RsrXT0FEhWMIk0yd--145">
          <mxGeometry y="138" width="360" height="26" as="geometry" />
        </mxCell>
        <mxCell id="BO4RsrXT0FEhWMIk0yd--152" value="private void SelectShip(int fightForce)" style="text;strokeColor=none;fillColor=none;align=left;verticalAlign=top;spacingLeft=4;spacingRight=4;overflow=hidden;rotatable=0;points=[[0,0.5],[1,0.5]];portConstraint=eastwest;whiteSpace=wrap;html=1;" vertex="1" parent="BO4RsrXT0FEhWMIk0yd--145">
          <mxGeometry y="164" width="360" height="26" as="geometry" />
        </mxCell>
        <mxCell id="BO4RsrXT0FEhWMIk0yd--153" value="private List&amp;lt;int[ , ]&amp;gt; PlaceSelectedShip(ShipBlueprint ship" style="text;strokeColor=none;fillColor=none;align=left;verticalAlign=top;spacingLeft=4;spacingRight=4;overflow=hidden;rotatable=0;points=[[0,0.5],[1,0.5]];portConstraint=eastwest;whiteSpace=wrap;html=1;" vertex="1" parent="BO4RsrXT0FEhWMIk0yd--145">
          <mxGeometry y="190" width="360" height="26" as="geometry" />
        </mxCell>
        <mxCell id="BO4RsrXT0FEhWMIk0yd--154" value="private void ResetBoard(List&amp;lt;int[ , ] shipsPositions)" style="text;strokeColor=none;fillColor=none;align=left;verticalAlign=top;spacingLeft=4;spacingRight=4;overflow=hidden;rotatable=0;points=[[0,0.5],[1,0.5]];portConstraint=eastwest;whiteSpace=wrap;html=1;" vertex="1" parent="BO4RsrXT0FEhWMIk0yd--145">
          <mxGeometry y="216" width="360" height="26" as="geometry" />
        </mxCell>
        <mxCell id="BO4RsrXT0FEhWMIk0yd--155" style="edgeStyle=orthogonalEdgeStyle;rounded=0;orthogonalLoop=1;jettySize=auto;html=1;exitX=0;exitY=0.5;exitDx=0;exitDy=0;entryX=0.5;entryY=0;entryDx=0;entryDy=0;" edge="1" parent="WIyWlLk6GJQsqaUBKTNV-1" source="BO4RsrXT0FEhWMIk0yd--128" target="BO4RsrXT0FEhWMIk0yd--145">
          <mxGeometry relative="1" as="geometry" />
        </mxCell>
        <mxCell id="BO4RsrXT0FEhWMIk0yd--156" value="EnemyAttack" style="swimlane;fontStyle=1;align=center;verticalAlign=top;childLayout=stackLayout;horizontal=1;startSize=26;horizontalStack=0;resizeParent=1;resizeParentMax=0;resizeLast=0;collapsible=1;marginBottom=0;whiteSpace=wrap;html=1;" vertex="1" parent="WIyWlLk6GJQsqaUBKTNV-1">
          <mxGeometry x="710" y="2200" width="440" height="138" as="geometry" />
        </mxCell>
        <mxCell id="BO4RsrXT0FEhWMIk0yd--160" value="private PlayerBoardManager _playerBoardManager" style="text;strokeColor=none;fillColor=none;align=left;verticalAlign=top;spacingLeft=4;spacingRight=4;overflow=hidden;rotatable=0;points=[[0,0.5],[1,0.5]];portConstraint=eastwest;whiteSpace=wrap;html=1;" vertex="1" parent="BO4RsrXT0FEhWMIk0yd--156">
          <mxGeometry y="26" width="440" height="26" as="geometry" />
        </mxCell>
        <mxCell id="BO4RsrXT0FEhWMIk0yd--161" value="private int[ , ] _board" style="text;strokeColor=none;fillColor=none;align=left;verticalAlign=top;spacingLeft=4;spacingRight=4;overflow=hidden;rotatable=0;points=[[0,0.5],[1,0.5]];portConstraint=eastwest;whiteSpace=wrap;html=1;" vertex="1" parent="BO4RsrXT0FEhWMIk0yd--156">
          <mxGeometry y="52" width="440" height="26" as="geometry" />
        </mxCell>
        <mxCell id="BO4RsrXT0FEhWMIk0yd--158" value="" style="line;strokeWidth=1;fillColor=none;align=left;verticalAlign=middle;spacingTop=-1;spacingLeft=3;spacingRight=3;rotatable=0;labelPosition=right;points=[];portConstraint=eastwest;strokeColor=inherit;" vertex="1" parent="BO4RsrXT0FEhWMIk0yd--156">
          <mxGeometry y="78" width="440" height="8" as="geometry" />
        </mxCell>
        <mxCell id="BO4RsrXT0FEhWMIk0yd--159" value="private void SetAttackParameters(PlayerBoardManager board)" style="text;strokeColor=none;fillColor=none;align=left;verticalAlign=top;spacingLeft=4;spacingRight=4;overflow=hidden;rotatable=0;points=[[0,0.5],[1,0.5]];portConstraint=eastwest;whiteSpace=wrap;html=1;" vertex="1" parent="BO4RsrXT0FEhWMIk0yd--156">
          <mxGeometry y="86" width="440" height="26" as="geometry" />
        </mxCell>
        <mxCell id="BO4RsrXT0FEhWMIk0yd--162" value="private void Attack(int numberOfAttacks)" style="text;strokeColor=none;fillColor=none;align=left;verticalAlign=top;spacingLeft=4;spacingRight=4;overflow=hidden;rotatable=0;points=[[0,0.5],[1,0.5]];portConstraint=eastwest;whiteSpace=wrap;html=1;" vertex="1" parent="BO4RsrXT0FEhWMIk0yd--156">
          <mxGeometry y="112" width="440" height="26" as="geometry" />
        </mxCell>
        <mxCell id="BO4RsrXT0FEhWMIk0yd--163" style="edgeStyle=orthogonalEdgeStyle;rounded=0;orthogonalLoop=1;jettySize=auto;html=1;exitX=1;exitY=0.5;exitDx=0;exitDy=0;entryX=0;entryY=0.5;entryDx=0;entryDy=0;" edge="1" parent="WIyWlLk6GJQsqaUBKTNV-1" source="BO4RsrXT0FEhWMIk0yd--128" target="BO4RsrXT0FEhWMIk0yd--159">
          <mxGeometry relative="1" as="geometry" />
        </mxCell>
        <mxCell id="BO4RsrXT0FEhWMIk0yd--164" style="edgeStyle=orthogonalEdgeStyle;rounded=0;orthogonalLoop=1;jettySize=auto;html=1;exitX=1;exitY=0.5;exitDx=0;exitDy=0;entryX=0;entryY=0.5;entryDx=0;entryDy=0;" edge="1" parent="WIyWlLk6GJQsqaUBKTNV-1" source="BO4RsrXT0FEhWMIk0yd--140" target="BO4RsrXT0FEhWMIk0yd--162">
          <mxGeometry relative="1" as="geometry">
            <Array as="points">
              <mxPoint x="650" y="2039" />
              <mxPoint x="650" y="2325" />
            </Array>
          </mxGeometry>
        </mxCell>
        <mxCell id="BO4RsrXT0FEhWMIk0yd--165" value="Map" style="swimlane;fontStyle=1;align=center;verticalAlign=top;childLayout=stackLayout;horizontal=1;startSize=26;horizontalStack=0;resizeParent=1;resizeParentMax=0;resizeLast=0;collapsible=1;marginBottom=0;whiteSpace=wrap;html=1;" vertex="1" parent="WIyWlLk6GJQsqaUBKTNV-1">
          <mxGeometry x="1880" y="1760" width="520" height="424" as="geometry" />
        </mxCell>
        <mxCell id="BO4RsrXT0FEhWMIk0yd--166" value="Signal GenerateMap" style="text;strokeColor=none;fillColor=none;align=left;verticalAlign=top;spacingLeft=4;spacingRight=4;overflow=hidden;rotatable=0;points=[[0,0.5],[1,0.5]];portConstraint=eastwest;whiteSpace=wrap;html=1;" vertex="1" parent="BO4RsrXT0FEhWMIk0yd--165">
          <mxGeometry y="26" width="520" height="26" as="geometry" />
        </mxCell>
        <mxCell id="BO4RsrXT0FEhWMIk0yd--169" value="Signal SendPosition&lt;span style=&quot;color: rgba(0, 0, 0, 0); font-family: monospace; font-size: 0px; text-wrap-mode: nowrap;&quot;&gt;%3CmxGraphModel%3E%3Croot%3E%3CmxCell%20id%3D%220%22%2F%3E%3CmxCell%20id%3D%221%22%20parent%3D%220%22%2F%3E%3CmxCell%20id%3D%222%22%20value%3D%22Signal%20GenerateMap%22%20style%3D%22text%3BstrokeColor%3Dnone%3BfillColor%3Dnone%3Balign%3Dleft%3BverticalAlign%3Dtop%3BspacingLeft%3D4%3BspacingRight%3D4%3Boverflow%3Dhidden%3Brotatable%3D0%3Bpoints%3D%5B%5B0%2C0.5%5D%2C%5B1%2C0.5%5D%5D%3BportConstraint%3Deastwest%3BwhiteSpace%3Dwrap%3Bhtml%3D1%3B%22%20vertex%3D%221%22%20parent%3D%221%22%3E%3CmxGeometry%20x%3D%221880%22%20y%3D%221786%22%20width%3D%22160%22%20height%3D%2226%22%20as%3D%22geometry%22%2F%3E%3C%2FmxCell%3E%3C%2Froot%3E%3C%2FmxGraphModel%3E&lt;/span&gt;" style="text;strokeColor=none;fillColor=none;align=left;verticalAlign=top;spacingLeft=4;spacingRight=4;overflow=hidden;rotatable=0;points=[[0,0.5],[1,0.5]];portConstraint=eastwest;whiteSpace=wrap;html=1;" vertex="1" parent="BO4RsrXT0FEhWMIk0yd--165">
          <mxGeometry y="52" width="520" height="26" as="geometry" />
        </mxCell>
        <mxCell id="BO4RsrXT0FEhWMIk0yd--170" value="Signal SendSize" style="text;strokeColor=none;fillColor=none;align=left;verticalAlign=top;spacingLeft=4;spacingRight=4;overflow=hidden;rotatable=0;points=[[0,0.5],[1,0.5]];portConstraint=eastwest;whiteSpace=wrap;html=1;" vertex="1" parent="BO4RsrXT0FEhWMIk0yd--165">
          <mxGeometry y="78" width="520" height="26" as="geometry" />
        </mxCell>
        <mxCell id="BO4RsrXT0FEhWMIk0yd--171" value="Signal SendMapWidth" style="text;strokeColor=none;fillColor=none;align=left;verticalAlign=top;spacingLeft=4;spacingRight=4;overflow=hidden;rotatable=0;points=[[0,0.5],[1,0.5]];portConstraint=eastwest;whiteSpace=wrap;html=1;" vertex="1" parent="BO4RsrXT0FEhWMIk0yd--165">
          <mxGeometry y="104" width="520" height="26" as="geometry" />
        </mxCell>
        <mxCell id="BO4RsrXT0FEhWMIk0yd--172" value="private GameUI&amp;nbsp; _gameUI" style="text;strokeColor=none;fillColor=none;align=left;verticalAlign=top;spacingLeft=4;spacingRight=4;overflow=hidden;rotatable=0;points=[[0,0.5],[1,0.5]];portConstraint=eastwest;whiteSpace=wrap;html=1;" vertex="1" parent="BO4RsrXT0FEhWMIk0yd--165">
          <mxGeometry y="130" width="520" height="26" as="geometry" />
        </mxCell>
        <mxCell id="BO4RsrXT0FEhWMIk0yd--173" value="private int&amp;nbsp; _mapWidth" style="text;strokeColor=none;fillColor=none;align=left;verticalAlign=top;spacingLeft=4;spacingRight=4;overflow=hidden;rotatable=0;points=[[0,0.5],[1,0.5]];portConstraint=eastwest;whiteSpace=wrap;html=1;" vertex="1" parent="BO4RsrXT0FEhWMIk0yd--165">
          <mxGeometry y="156" width="520" height="26" as="geometry" />
        </mxCell>
        <mxCell id="BO4RsrXT0FEhWMIk0yd--167" value="" style="line;strokeWidth=1;fillColor=none;align=left;verticalAlign=middle;spacingTop=-1;spacingLeft=3;spacingRight=3;rotatable=0;labelPosition=right;points=[];portConstraint=eastwest;strokeColor=inherit;" vertex="1" parent="BO4RsrXT0FEhWMIk0yd--165">
          <mxGeometry y="182" width="520" height="8" as="geometry" />
        </mxCell>
        <mxCell id="BO4RsrXT0FEhWMIk0yd--168" value="private void CallGenerateMap(int width)&lt;span style=&quot;color: rgba(0, 0, 0, 0); font-family: monospace; font-size: 0px; text-wrap-mode: nowrap;&quot;&gt;%3CmxGraphModel%3E%3Croot%3E%3CmxCell%20id%3D%220%22%2F%3E%3CmxCell%20id%3D%221%22%20parent%3D%220%22%2F%3E%3CmxCell%20id%3D%222%22%20value%3D%22private%20GameUI%20_gameUI%22%20style%3D%22text%3BstrokeColor%3Dnone%3BfillColor%3Dnone%3Balign%3Dleft%3BverticalAlign%3Dtop%3BspacingLeft%3D4%3BspacingRight%3D4%3Boverflow%3Dhidden%3Brotatable%3D0%3Bpoints%3D%5B%5B0%2C0.5%5D%2C%5B1%2C0.5%5D%5D%3BportConstraint%3Deastwest%3BwhiteSpace%3Dwrap%3Bhtml%3D1%3B%22%20vertex%3D%221%22%20parent%3D%221%22%3E%3CmxGeometry%20x%3D%221880%22%20y%3D%221890%22%20width%3D%22160%22%20height%3D%2226%22%20as%3D%22geometry%22%2F%3E%3C%2FmxCell%3E%3C%2Froot%3E%3C%2FmxGraphModel%3E&lt;/span&gt;" style="text;strokeColor=none;fillColor=none;align=left;verticalAlign=top;spacingLeft=4;spacingRight=4;overflow=hidden;rotatable=0;points=[[0,0.5],[1,0.5]];portConstraint=eastwest;whiteSpace=wrap;html=1;" vertex="1" parent="BO4RsrXT0FEhWMIk0yd--165">
          <mxGeometry y="190" width="520" height="26" as="geometry" />
        </mxCell>
        <mxCell id="BO4RsrXT0FEhWMIk0yd--174" value="private void SetUIData()" style="text;strokeColor=none;fillColor=none;align=left;verticalAlign=top;spacingLeft=4;spacingRight=4;overflow=hidden;rotatable=0;points=[[0,0.5],[1,0.5]];portConstraint=eastwest;whiteSpace=wrap;html=1;" vertex="1" parent="BO4RsrXT0FEhWMIk0yd--165">
          <mxGeometry y="216" width="520" height="26" as="geometry" />
        </mxCell>
        <mxCell id="BO4RsrXT0FEhWMIk0yd--175" value="&lt;div&gt;public int GetMapWidth()&lt;span style=&quot;color: rgba(0, 0, 0, 0); font-family: monospace; font-size: 0px; text-wrap-mode: nowrap; background-color: transparent;&quot;&gt;%3CmxGraphModel%3E%3Croot%3E%3CmxCell%20id%3D%220%22%2F%3E%3CmxCell%20id%3D%221%22%20parent%3D%220%22%2F%3E%3CmxCell%20id%3D%222%22%20value%3D%22private%20void%20GetUIData()%22%20style%3D%22text%3BstrokeColor%3Dnone%3BfillColor%3Dnone%3Balign%3Dleft%3BverticalAlign%3Dtop%3BspacingLeft%3D4%3BspacingRight%3D4%3Boverflow%3Dhidden%3Brotatable%3D0%3Bpoints%3D%5B%5B0%2C0.5%5D%2C%5B1%2C0.5%5D%5D%3BportConstraint%3Deastwest%3BwhiteSpace%3Dwrap%3Bhtml%3D1%3B%22%20vertex%3D%221%22%20parent%3D%221%22%3E%3CmxGeometry%20x%3D%221880%22%20y%3D%221976%22%20width%3D%22380%22%20height%3D%2226%22%20as%3D%22geometry%22%2F%3E%3C%2FmxCell%3E%3C%2Froot%3E%3C%2FmxGraphModel%3E&lt;/span&gt;&lt;/div&gt;" style="text;strokeColor=none;fillColor=none;align=left;verticalAlign=top;spacingLeft=4;spacingRight=4;overflow=hidden;rotatable=0;points=[[0,0.5],[1,0.5]];portConstraint=eastwest;whiteSpace=wrap;html=1;" vertex="1" parent="BO4RsrXT0FEhWMIk0yd--165">
          <mxGeometry y="242" width="520" height="26" as="geometry" />
        </mxCell>
        <mxCell id="BO4RsrXT0FEhWMIk0yd--176" value="private void GetIslandInfos()" style="text;strokeColor=none;fillColor=none;align=left;verticalAlign=top;spacingLeft=4;spacingRight=4;overflow=hidden;rotatable=0;points=[[0,0.5],[1,0.5]];portConstraint=eastwest;whiteSpace=wrap;html=1;" vertex="1" parent="BO4RsrXT0FEhWMIk0yd--165">
          <mxGeometry y="268" width="520" height="26" as="geometry" />
        </mxCell>
        <mxCell id="BO4RsrXT0FEhWMIk0yd--177" value="public int[ , ] GetMap()" style="text;strokeColor=none;fillColor=none;align=left;verticalAlign=top;spacingLeft=4;spacingRight=4;overflow=hidden;rotatable=0;points=[[0,0.5],[1,0.5]];portConstraint=eastwest;whiteSpace=wrap;html=1;" vertex="1" parent="BO4RsrXT0FEhWMIk0yd--165">
          <mxGeometry y="294" width="520" height="26" as="geometry" />
        </mxCell>
        <mxCell id="BO4RsrXT0FEhWMIk0yd--178" value="private void HideMap()" style="text;strokeColor=none;fillColor=none;align=left;verticalAlign=top;spacingLeft=4;spacingRight=4;overflow=hidden;rotatable=0;points=[[0,0.5],[1,0.5]];portConstraint=eastwest;whiteSpace=wrap;html=1;" vertex="1" parent="BO4RsrXT0FEhWMIk0yd--165">
          <mxGeometry y="320" width="520" height="26" as="geometry" />
        </mxCell>
        <mxCell id="BO4RsrXT0FEhWMIk0yd--179" value="private void ShowMap()" style="text;strokeColor=none;fillColor=none;align=left;verticalAlign=top;spacingLeft=4;spacingRight=4;overflow=hidden;rotatable=0;points=[[0,0.5],[1,0.5]];portConstraint=eastwest;whiteSpace=wrap;html=1;" vertex="1" parent="BO4RsrXT0FEhWMIk0yd--165">
          <mxGeometry y="346" width="520" height="26" as="geometry" />
        </mxCell>
        <mxCell id="BO4RsrXT0FEhWMIk0yd--180" value="private void TransferHitSignal(string grid, Vector2I position)" style="text;strokeColor=none;fillColor=none;align=left;verticalAlign=top;spacingLeft=4;spacingRight=4;overflow=hidden;rotatable=0;points=[[0,0.5],[1,0.5]];portConstraint=eastwest;whiteSpace=wrap;html=1;" vertex="1" parent="BO4RsrXT0FEhWMIk0yd--165">
          <mxGeometry y="372" width="520" height="26" as="geometry" />
        </mxCell>
        <mxCell id="BO4RsrXT0FEhWMIk0yd--181" value="private void TransferMissSignal(string grid, Vector2I position)" style="text;strokeColor=none;fillColor=none;align=left;verticalAlign=top;spacingLeft=4;spacingRight=4;overflow=hidden;rotatable=0;points=[[0,0.5],[1,0.5]];portConstraint=eastwest;whiteSpace=wrap;html=1;" vertex="1" parent="BO4RsrXT0FEhWMIk0yd--165">
          <mxGeometry y="398" width="520" height="26" as="geometry" />
        </mxCell>
        <mxCell id="BO4RsrXT0FEhWMIk0yd--182" value="MapGen" style="swimlane;fontStyle=1;align=center;verticalAlign=top;childLayout=stackLayout;horizontal=1;startSize=26;horizontalStack=0;resizeParent=1;resizeParentMax=0;resizeLast=0;collapsible=1;marginBottom=0;whiteSpace=wrap;html=1;" vertex="1" parent="WIyWlLk6GJQsqaUBKTNV-1">
          <mxGeometry x="1880" y="2320" width="340" height="424" as="geometry" />
        </mxCell>
        <mxCell id="BO4RsrXT0FEhWMIk0yd--183" value="Signal MapGeneration" style="text;strokeColor=none;fillColor=none;align=left;verticalAlign=top;spacingLeft=4;spacingRight=4;overflow=hidden;rotatable=0;points=[[0,0.5],[1,0.5]];portConstraint=eastwest;whiteSpace=wrap;html=1;" vertex="1" parent="BO4RsrXT0FEhWMIk0yd--182">
          <mxGeometry y="26" width="340" height="26" as="geometry" />
        </mxCell>
        <mxCell id="BO4RsrXT0FEhWMIk0yd--186" value="Signal GivingIslands" style="text;strokeColor=none;fillColor=none;align=left;verticalAlign=top;spacingLeft=4;spacingRight=4;overflow=hidden;rotatable=0;points=[[0,0.5],[1,0.5]];portConstraint=eastwest;whiteSpace=wrap;html=1;" vertex="1" parent="BO4RsrXT0FEhWMIk0yd--182">
          <mxGeometry y="52" width="340" height="26" as="geometry" />
        </mxCell>
        <mxCell id="BO4RsrXT0FEhWMIk0yd--188" value="private int&amp;nbsp; _mapWidth" style="text;strokeColor=none;fillColor=none;align=left;verticalAlign=top;spacingLeft=4;spacingRight=4;overflow=hidden;rotatable=0;points=[[0,0.5],[1,0.5]];portConstraint=eastwest;whiteSpace=wrap;html=1;" vertex="1" parent="BO4RsrXT0FEhWMIk0yd--182">
          <mxGeometry y="78" width="340" height="26" as="geometry" />
        </mxCell>
        <mxCell id="BO4RsrXT0FEhWMIk0yd--189" value="private int&amp;nbsp; _mapHeight" style="text;strokeColor=none;fillColor=none;align=left;verticalAlign=top;spacingLeft=4;spacingRight=4;overflow=hidden;rotatable=0;points=[[0,0.5],[1,0.5]];portConstraint=eastwest;whiteSpace=wrap;html=1;" vertex="1" parent="BO4RsrXT0FEhWMIk0yd--182">
          <mxGeometry y="104" width="340" height="26" as="geometry" />
        </mxCell>
        <mxCell id="BO4RsrXT0FEhWMIk0yd--190" value="private int[ , ]&amp;nbsp; _mapGrid" style="text;strokeColor=none;fillColor=none;align=left;verticalAlign=top;spacingLeft=4;spacingRight=4;overflow=hidden;rotatable=0;points=[[0,0.5],[1,0.5]];portConstraint=eastwest;whiteSpace=wrap;html=1;" vertex="1" parent="BO4RsrXT0FEhWMIk0yd--182">
          <mxGeometry y="130" width="340" height="26" as="geometry" />
        </mxCell>
        <mxCell id="BO4RsrXT0FEhWMIk0yd--191" value="public List&amp;lt;IslandInfo&amp;gt; islandData" style="text;strokeColor=none;fillColor=none;align=left;verticalAlign=top;spacingLeft=4;spacingRight=4;overflow=hidden;rotatable=0;points=[[0,0.5],[1,0.5]];portConstraint=eastwest;whiteSpace=wrap;html=1;" vertex="1" parent="BO4RsrXT0FEhWMIk0yd--182">
          <mxGeometry y="156" width="340" height="26" as="geometry" />
        </mxCell>
        <mxCell id="BO4RsrXT0FEhWMIk0yd--192" value="private List&amp;lt;[ , ]&amp;gt; _presets" style="text;strokeColor=none;fillColor=none;align=left;verticalAlign=top;spacingLeft=4;spacingRight=4;overflow=hidden;rotatable=0;points=[[0,0.5],[1,0.5]];portConstraint=eastwest;whiteSpace=wrap;html=1;" vertex="1" parent="BO4RsrXT0FEhWMIk0yd--182">
          <mxGeometry y="182" width="340" height="26" as="geometry" />
        </mxCell>
        <mxCell id="BO4RsrXT0FEhWMIk0yd--184" value="" style="line;strokeWidth=1;fillColor=none;align=left;verticalAlign=middle;spacingTop=-1;spacingLeft=3;spacingRight=3;rotatable=0;labelPosition=right;points=[];portConstraint=eastwest;strokeColor=inherit;" vertex="1" parent="BO4RsrXT0FEhWMIk0yd--182">
          <mxGeometry y="208" width="340" height="8" as="geometry" />
        </mxCell>
        <mxCell id="BO4RsrXT0FEhWMIk0yd--185" value="private bool CanPlacePreset(int[ , ] preset, int x, int y)" style="text;strokeColor=none;fillColor=none;align=left;verticalAlign=top;spacingLeft=4;spacingRight=4;overflow=hidden;rotatable=0;points=[[0,0.5],[1,0.5]];portConstraint=eastwest;whiteSpace=wrap;html=1;" vertex="1" parent="BO4RsrXT0FEhWMIk0yd--182">
          <mxGeometry y="216" width="340" height="26" as="geometry" />
        </mxCell>
        <mxCell id="BO4RsrXT0FEhWMIk0yd--193" value="private void PlacePreset(int[ , ] preset, int x, int y)" style="text;strokeColor=none;fillColor=none;align=left;verticalAlign=top;spacingLeft=4;spacingRight=4;overflow=hidden;rotatable=0;points=[[0,0.5],[1,0.5]];portConstraint=eastwest;whiteSpace=wrap;html=1;" vertex="1" parent="BO4RsrXT0FEhWMIk0yd--182">
          <mxGeometry y="242" width="340" height="26" as="geometry" />
        </mxCell>
        <mxCell id="BO4RsrXT0FEhWMIk0yd--194" value="private double CalculateCoverage()" style="text;strokeColor=none;fillColor=none;align=left;verticalAlign=top;spacingLeft=4;spacingRight=4;overflow=hidden;rotatable=0;points=[[0,0.5],[1,0.5]];portConstraint=eastwest;whiteSpace=wrap;html=1;" vertex="1" parent="BO4RsrXT0FEhWMIk0yd--182">
          <mxGeometry y="268" width="340" height="26" as="geometry" />
        </mxCell>
        <mxCell id="BO4RsrXT0FEhWMIk0yd--195" value="public int[ , ] GetMapGrid()" style="text;strokeColor=none;fillColor=none;align=left;verticalAlign=top;spacingLeft=4;spacingRight=4;overflow=hidden;rotatable=0;points=[[0,0.5],[1,0.5]];portConstraint=eastwest;whiteSpace=wrap;html=1;" vertex="1" parent="BO4RsrXT0FEhWMIk0yd--182">
          <mxGeometry y="294" width="340" height="26" as="geometry" />
        </mxCell>
        <mxCell id="BO4RsrXT0FEhWMIk0yd--196" value="private void GenerateMap(int width, int height)" style="text;strokeColor=none;fillColor=none;align=left;verticalAlign=top;spacingLeft=4;spacingRight=4;overflow=hidden;rotatable=0;points=[[0,0.5],[1,0.5]];portConstraint=eastwest;whiteSpace=wrap;html=1;" vertex="1" parent="BO4RsrXT0FEhWMIk0yd--182">
          <mxGeometry y="320" width="340" height="26" as="geometry" />
        </mxCell>
        <mxCell id="BO4RsrXT0FEhWMIk0yd--197" value="private void SaveIsland(int island, int x, int y)" style="text;strokeColor=none;fillColor=none;align=left;verticalAlign=top;spacingLeft=4;spacingRight=4;overflow=hidden;rotatable=0;points=[[0,0.5],[1,0.5]];portConstraint=eastwest;whiteSpace=wrap;html=1;" vertex="1" parent="BO4RsrXT0FEhWMIk0yd--182">
          <mxGeometry y="346" width="340" height="26" as="geometry" />
        </mxCell>
        <mxCell id="BO4RsrXT0FEhWMIk0yd--198" value="public int GetMapWidth()" style="text;strokeColor=none;fillColor=none;align=left;verticalAlign=top;spacingLeft=4;spacingRight=4;overflow=hidden;rotatable=0;points=[[0,0.5],[1,0.5]];portConstraint=eastwest;whiteSpace=wrap;html=1;" vertex="1" parent="BO4RsrXT0FEhWMIk0yd--182">
          <mxGeometry y="372" width="340" height="26" as="geometry" />
        </mxCell>
        <mxCell id="BO4RsrXT0FEhWMIk0yd--199" value="public List&amp;lt;IslandInfo&amp;gt; GetIslandInfos()" style="text;strokeColor=none;fillColor=none;align=left;verticalAlign=top;spacingLeft=4;spacingRight=4;overflow=hidden;rotatable=0;points=[[0,0.5],[1,0.5]];portConstraint=eastwest;whiteSpace=wrap;html=1;" vertex="1" parent="BO4RsrXT0FEhWMIk0yd--182">
          <mxGeometry y="398" width="340" height="26" as="geometry" />
        </mxCell>
        <mxCell id="BO4RsrXT0FEhWMIk0yd--200" style="edgeStyle=orthogonalEdgeStyle;rounded=0;orthogonalLoop=1;jettySize=auto;html=1;exitX=0;exitY=0.5;exitDx=0;exitDy=0;entryX=0;entryY=0.5;entryDx=0;entryDy=0;" edge="1" parent="WIyWlLk6GJQsqaUBKTNV-1" source="BO4RsrXT0FEhWMIk0yd--166" target="BO4RsrXT0FEhWMIk0yd--196">
          <mxGeometry relative="1" as="geometry" />
        </mxCell>
        <mxCell id="BO4RsrXT0FEhWMIk0yd--201" value="MapUI" style="swimlane;fontStyle=1;align=center;verticalAlign=top;childLayout=stackLayout;horizontal=1;startSize=26;horizontalStack=0;resizeParent=1;resizeParentMax=0;resizeLast=0;collapsible=1;marginBottom=0;whiteSpace=wrap;html=1;" vertex="1" parent="WIyWlLk6GJQsqaUBKTNV-1">
          <mxGeometry x="2481" y="1850" width="370" height="684" as="geometry" />
        </mxCell>
        <mxCell id="BO4RsrXT0FEhWMIk0yd--202" value="Signal GetUIData" style="text;strokeColor=none;fillColor=none;align=left;verticalAlign=top;spacingLeft=4;spacingRight=4;overflow=hidden;rotatable=0;points=[[0,0.5],[1,0.5]];portConstraint=eastwest;whiteSpace=wrap;html=1;" vertex="1" parent="BO4RsrXT0FEhWMIk0yd--201">
          <mxGeometry y="26" width="370" height="26" as="geometry" />
        </mxCell>
        <mxCell id="BO4RsrXT0FEhWMIk0yd--205" value="public CompressedTexture2D[] islandSprites" style="text;strokeColor=none;fillColor=none;align=left;verticalAlign=top;spacingLeft=4;spacingRight=4;overflow=hidden;rotatable=0;points=[[0,0.5],[1,0.5]];portConstraint=eastwest;whiteSpace=wrap;html=1;" vertex="1" parent="BO4RsrXT0FEhWMIk0yd--201">
          <mxGeometry y="52" width="370" height="26" as="geometry" />
        </mxCell>
        <mxCell id="BO4RsrXT0FEhWMIk0yd--206" value="private TileMapLayer _waterLayer" style="text;strokeColor=none;fillColor=none;align=left;verticalAlign=top;spacingLeft=4;spacingRight=4;overflow=hidden;rotatable=0;points=[[0,0.5],[1,0.5]];portConstraint=eastwest;whiteSpace=wrap;html=1;" vertex="1" parent="BO4RsrXT0FEhWMIk0yd--201">
          <mxGeometry y="78" width="370" height="26" as="geometry" />
        </mxCell>
        <mxCell id="BO4RsrXT0FEhWMIk0yd--207" value="private TileMapLayer _gridLayer" style="text;strokeColor=none;fillColor=none;align=left;verticalAlign=top;spacingLeft=4;spacingRight=4;overflow=hidden;rotatable=0;points=[[0,0.5],[1,0.5]];portConstraint=eastwest;whiteSpace=wrap;html=1;" vertex="1" parent="BO4RsrXT0FEhWMIk0yd--201">
          <mxGeometry y="104" width="370" height="26" as="geometry" />
        </mxCell>
        <mxCell id="BO4RsrXT0FEhWMIk0yd--208" value="private List&amp;lt;Sprite2D&amp;gt; _islands" style="text;strokeColor=none;fillColor=none;align=left;verticalAlign=top;spacingLeft=4;spacingRight=4;overflow=hidden;rotatable=0;points=[[0,0.5],[1,0.5]];portConstraint=eastwest;whiteSpace=wrap;html=1;" vertex="1" parent="BO4RsrXT0FEhWMIk0yd--201">
          <mxGeometry y="130" width="370" height="26" as="geometry" />
        </mxCell>
        <mxCell id="BO4RsrXT0FEhWMIk0yd--209" value="private float&amp;nbsp; _scale" style="text;strokeColor=none;fillColor=none;align=left;verticalAlign=top;spacingLeft=4;spacingRight=4;overflow=hidden;rotatable=0;points=[[0,0.5],[1,0.5]];portConstraint=eastwest;whiteSpace=wrap;html=1;" vertex="1" parent="BO4RsrXT0FEhWMIk0yd--201">
          <mxGeometry y="156" width="370" height="26" as="geometry" />
        </mxCell>
        <mxCell id="BO4RsrXT0FEhWMIk0yd--210" value="private float&amp;nbsp; _baordWidth" style="text;strokeColor=none;fillColor=none;align=left;verticalAlign=top;spacingLeft=4;spacingRight=4;overflow=hidden;rotatable=0;points=[[0,0.5],[1,0.5]];portConstraint=eastwest;whiteSpace=wrap;html=1;" vertex="1" parent="BO4RsrXT0FEhWMIk0yd--201">
          <mxGeometry y="182" width="370" height="26" as="geometry" />
        </mxCell>
        <mxCell id="BO4RsrXT0FEhWMIk0yd--211" value="private int _mapWidth" style="text;strokeColor=none;fillColor=none;align=left;verticalAlign=top;spacingLeft=4;spacingRight=4;overflow=hidden;rotatable=0;points=[[0,0.5],[1,0.5]];portConstraint=eastwest;whiteSpace=wrap;html=1;" vertex="1" parent="BO4RsrXT0FEhWMIk0yd--201">
          <mxGeometry y="208" width="370" height="26" as="geometry" />
        </mxCell>
        <mxCell id="BO4RsrXT0FEhWMIk0yd--212" value="private Vector2 _mapPositons" style="text;strokeColor=none;fillColor=none;align=left;verticalAlign=top;spacingLeft=4;spacingRight=4;overflow=hidden;rotatable=0;points=[[0,0.5],[1,0.5]];portConstraint=eastwest;whiteSpace=wrap;html=1;" vertex="1" parent="BO4RsrXT0FEhWMIk0yd--201">
          <mxGeometry y="234" width="370" height="26" as="geometry" />
        </mxCell>
        <mxCell id="BO4RsrXT0FEhWMIk0yd--213" value="private List&amp;lt;MapGen.IslandInfo&amp;gt; _islandInfos" style="text;strokeColor=none;fillColor=none;align=left;verticalAlign=top;spacingLeft=4;spacingRight=4;overflow=hidden;rotatable=0;points=[[0,0.5],[1,0.5]];portConstraint=eastwest;whiteSpace=wrap;html=1;" vertex="1" parent="BO4RsrXT0FEhWMIk0yd--201">
          <mxGeometry y="260" width="370" height="26" as="geometry" />
        </mxCell>
        <mxCell id="BO4RsrXT0FEhWMIk0yd--214" value="private bool _pReady" style="text;strokeColor=none;fillColor=none;align=left;verticalAlign=top;spacingLeft=4;spacingRight=4;overflow=hidden;rotatable=0;points=[[0,0.5],[1,0.5]];portConstraint=eastwest;whiteSpace=wrap;html=1;" vertex="1" parent="BO4RsrXT0FEhWMIk0yd--201">
          <mxGeometry y="286" width="370" height="26" as="geometry" />
        </mxCell>
        <mxCell id="BO4RsrXT0FEhWMIk0yd--215" value="private bool _sReady&lt;span style=&quot;color: rgba(0, 0, 0, 0); font-family: monospace; font-size: 0px; text-wrap-mode: nowrap;&quot;&gt;%3CmxGraphModel%3E%3Croot%3E%3CmxCell%20id%3D%220%22%2F%3E%3CmxCell%20id%3D%221%22%20parent%3D%220%22%2F%3E%3CmxCell%20id%3D%222%22%20value%3D%22private%20bool%20_pReady%22%20style%3D%22text%3BstrokeColor%3Dnone%3BfillColor%3Dnone%3Balign%3Dleft%3BverticalAlign%3Dtop%3BspacingLeft%3D4%3BspacingRight%3D4%3Boverflow%3Dhidden%3Brotatable%3D0%3Bpoints%3D%5B%5B0%2C0.5%5D%2C%5B1%2C0.5%5D%5D%3BportConstraint%3Deastwest%3BwhiteSpace%3Dwrap%3Bhtml%3D1%3B%22%20vertex%3D%221%22%20parent%3D%221%22%3E%3CmxGeometry%20x%3D%222150%22%20y%3D%222566%22%20width%3D%22370%22%20height%3D%2226%22%20as%3D%22geometry%22%2F%3E%3C%2FmxCell%3E%3C%2Froot%3E%3C%2FmxGraphModel%3E&lt;/span&gt;" style="text;strokeColor=none;fillColor=none;align=left;verticalAlign=top;spacingLeft=4;spacingRight=4;overflow=hidden;rotatable=0;points=[[0,0.5],[1,0.5]];portConstraint=eastwest;whiteSpace=wrap;html=1;" vertex="1" parent="BO4RsrXT0FEhWMIk0yd--201">
          <mxGeometry y="312" width="370" height="26" as="geometry" />
        </mxCell>
        <mxCell id="BO4RsrXT0FEhWMIk0yd--216" value="private bool _mReady" style="text;strokeColor=none;fillColor=none;align=left;verticalAlign=top;spacingLeft=4;spacingRight=4;overflow=hidden;rotatable=0;points=[[0,0.5],[1,0.5]];portConstraint=eastwest;whiteSpace=wrap;html=1;" vertex="1" parent="BO4RsrXT0FEhWMIk0yd--201">
          <mxGeometry y="338" width="370" height="26" as="geometry" />
        </mxCell>
        <mxCell id="BO4RsrXT0FEhWMIk0yd--217" value="private bool _wReady" style="text;strokeColor=none;fillColor=none;align=left;verticalAlign=top;spacingLeft=4;spacingRight=4;overflow=hidden;rotatable=0;points=[[0,0.5],[1,0.5]];portConstraint=eastwest;whiteSpace=wrap;html=1;" vertex="1" parent="BO4RsrXT0FEhWMIk0yd--201">
          <mxGeometry y="364" width="370" height="26" as="geometry" />
        </mxCell>
        <mxCell id="BO4RsrXT0FEhWMIk0yd--203" value="" style="line;strokeWidth=1;fillColor=none;align=left;verticalAlign=middle;spacingTop=-1;spacingLeft=3;spacingRight=3;rotatable=0;labelPosition=right;points=[];portConstraint=eastwest;strokeColor=inherit;" vertex="1" parent="BO4RsrXT0FEhWMIk0yd--201">
          <mxGeometry y="390" width="370" height="8" as="geometry" />
        </mxCell>
        <mxCell id="BO4RsrXT0FEhWMIk0yd--204" value="public void _Ready()" style="text;strokeColor=none;fillColor=none;align=left;verticalAlign=top;spacingLeft=4;spacingRight=4;overflow=hidden;rotatable=0;points=[[0,0.5],[1,0.5]];portConstraint=eastwest;whiteSpace=wrap;html=1;" vertex="1" parent="BO4RsrXT0FEhWMIk0yd--201">
          <mxGeometry y="398" width="370" height="26" as="geometry" />
        </mxCell>
        <mxCell id="BO4RsrXT0FEhWMIk0yd--218" value="public void _Process()" style="text;strokeColor=none;fillColor=none;align=left;verticalAlign=top;spacingLeft=4;spacingRight=4;overflow=hidden;rotatable=0;points=[[0,0.5],[1,0.5]];portConstraint=eastwest;whiteSpace=wrap;html=1;" vertex="1" parent="BO4RsrXT0FEhWMIk0yd--201">
          <mxGeometry y="424" width="370" height="26" as="geometry" />
        </mxCell>
        <mxCell id="BO4RsrXT0FEhWMIk0yd--219" value="private void GenerateUI()" style="text;strokeColor=none;fillColor=none;align=left;verticalAlign=top;spacingLeft=4;spacingRight=4;overflow=hidden;rotatable=0;points=[[0,0.5],[1,0.5]];portConstraint=eastwest;whiteSpace=wrap;html=1;" vertex="1" parent="BO4RsrXT0FEhWMIk0yd--201">
          <mxGeometry y="450" width="370" height="26" as="geometry" />
        </mxCell>
        <mxCell id="BO4RsrXT0FEhWMIk0yd--220" value="private void PlaceIslands()" style="text;strokeColor=none;fillColor=none;align=left;verticalAlign=top;spacingLeft=4;spacingRight=4;overflow=hidden;rotatable=0;points=[[0,0.5],[1,0.5]];portConstraint=eastwest;whiteSpace=wrap;html=1;" vertex="1" parent="BO4RsrXT0FEhWMIk0yd--201">
          <mxGeometry y="476" width="370" height="26" as="geometry" />
        </mxCell>
        <mxCell id="BO4RsrXT0FEhWMIk0yd--222" value="public void SetIslandInfos(List&amp;lt;MapGen..IslandInfo&amp;gt; infos)" style="text;strokeColor=none;fillColor=none;align=left;verticalAlign=top;spacingLeft=4;spacingRight=4;overflow=hidden;rotatable=0;points=[[0,0.5],[1,0.5]];portConstraint=eastwest;whiteSpace=wrap;html=1;" vertex="1" parent="BO4RsrXT0FEhWMIk0yd--201">
          <mxGeometry y="502" width="370" height="26" as="geometry" />
        </mxCell>
        <mxCell id="BO4RsrXT0FEhWMIk0yd--223" value="private void MapReady()&lt;span style=&quot;color: rgba(0, 0, 0, 0); font-family: monospace; font-size: 0px; text-wrap-mode: nowrap;&quot;&gt;%3CmxGraphModel%3E%3Croot%3E%3CmxCell%20id%3D%220%22%2F%3E%3CmxCell%20id%3D%221%22%20parent%3D%220%22%2F%3E%3CmxCell%20id%3D%222%22%20value%3D%22public%20void%20SetIslandInfos(List%26amp%3Blt%3BMapGen..IslandInfo%26amp%3Bgt%3B%20infos)%22%20style%3D%22text%3BstrokeColor%3Dnone%3BfillColor%3Dnone%3Balign%3Dleft%3BverticalAlign%3Dtop%3BspacingLeft%3D4%3BspacingRight%3D4%3Boverflow%3Dhidden%3Brotatable%3D0%3Bpoints%3D%5B%5B0%2C0.5%5D%2C%5B1%2C0.5%5D%5D%3BportConstraint%3Deastwest%3BwhiteSpace%3Dwrap%3Bhtml%3D1%3B%22%20vertex%3D%221%22%20parent%3D%221%22%3E%3CmxGeometry%20x%3D%222150%22%20y%3D%222782%22%20width%3D%22370%22%20height%3D%2226%22%20as%3D%22geometry%22%2F%3E%3C%2FmxCell%3E%3C%2Froot%3E%3C%2FmxGraphModel%3E&lt;/span&gt;" style="text;strokeColor=none;fillColor=none;align=left;verticalAlign=top;spacingLeft=4;spacingRight=4;overflow=hidden;rotatable=0;points=[[0,0.5],[1,0.5]];portConstraint=eastwest;whiteSpace=wrap;html=1;" vertex="1" parent="BO4RsrXT0FEhWMIk0yd--201">
          <mxGeometry y="528" width="370" height="26" as="geometry" />
        </mxCell>
        <mxCell id="BO4RsrXT0FEhWMIk0yd--224" value="private void SetMapPosition(Vector2 position)" style="text;strokeColor=none;fillColor=none;align=left;verticalAlign=top;spacingLeft=4;spacingRight=4;overflow=hidden;rotatable=0;points=[[0,0.5],[1,0.5]];portConstraint=eastwest;whiteSpace=wrap;html=1;" vertex="1" parent="BO4RsrXT0FEhWMIk0yd--201">
          <mxGeometry y="554" width="370" height="26" as="geometry" />
        </mxCell>
        <mxCell id="BO4RsrXT0FEhWMIk0yd--225" value="private void SetSize(Vector2 size)" style="text;strokeColor=none;fillColor=none;align=left;verticalAlign=top;spacingLeft=4;spacingRight=4;overflow=hidden;rotatable=0;points=[[0,0.5],[1,0.5]];portConstraint=eastwest;whiteSpace=wrap;html=1;" vertex="1" parent="BO4RsrXT0FEhWMIk0yd--201">
          <mxGeometry y="580" width="370" height="26" as="geometry" />
        </mxCell>
        <mxCell id="BO4RsrXT0FEhWMIk0yd--226" value="private void SetWidth(int width)&amp;nbsp;" style="text;strokeColor=none;fillColor=none;align=left;verticalAlign=top;spacingLeft=4;spacingRight=4;overflow=hidden;rotatable=0;points=[[0,0.5],[1,0.5]];portConstraint=eastwest;whiteSpace=wrap;html=1;" vertex="1" parent="BO4RsrXT0FEhWMIk0yd--201">
          <mxGeometry y="606" width="370" height="26" as="geometry" />
        </mxCell>
        <mxCell id="BO4RsrXT0FEhWMIk0yd--227" value="privade void PlaceHitMarker(string grid, Vector2I pos)" style="text;strokeColor=none;fillColor=none;align=left;verticalAlign=top;spacingLeft=4;spacingRight=4;overflow=hidden;rotatable=0;points=[[0,0.5],[1,0.5]];portConstraint=eastwest;whiteSpace=wrap;html=1;" vertex="1" parent="BO4RsrXT0FEhWMIk0yd--201">
          <mxGeometry y="632" width="370" height="26" as="geometry" />
        </mxCell>
        <mxCell id="BO4RsrXT0FEhWMIk0yd--228" value="privade void PlaceMissMarker(string grid, Vector2I pos)" style="text;strokeColor=none;fillColor=none;align=left;verticalAlign=top;spacingLeft=4;spacingRight=4;overflow=hidden;rotatable=0;points=[[0,0.5],[1,0.5]];portConstraint=eastwest;whiteSpace=wrap;html=1;" vertex="1" parent="BO4RsrXT0FEhWMIk0yd--201">
          <mxGeometry y="658" width="370" height="26" as="geometry" />
        </mxCell>
        <mxCell id="BO4RsrXT0FEhWMIk0yd--229" style="edgeStyle=orthogonalEdgeStyle;rounded=0;orthogonalLoop=1;jettySize=auto;html=1;exitX=1;exitY=0.5;exitDx=0;exitDy=0;entryX=0;entryY=0.5;entryDx=0;entryDy=0;" edge="1" parent="WIyWlLk6GJQsqaUBKTNV-1" source="BO4RsrXT0FEhWMIk0yd--181" target="BO4RsrXT0FEhWMIk0yd--228">
          <mxGeometry relative="1" as="geometry" />
        </mxCell>
        <mxCell id="BO4RsrXT0FEhWMIk0yd--230" style="edgeStyle=orthogonalEdgeStyle;rounded=0;orthogonalLoop=1;jettySize=auto;html=1;exitX=1;exitY=0.5;exitDx=0;exitDy=0;entryX=0;entryY=0.5;entryDx=0;entryDy=0;" edge="1" parent="WIyWlLk6GJQsqaUBKTNV-1" source="BO4RsrXT0FEhWMIk0yd--180" target="BO4RsrXT0FEhWMIk0yd--227">
          <mxGeometry relative="1" as="geometry">
            <Array as="points">
              <mxPoint x="2450" y="2145" />
              <mxPoint x="2450" y="2495" />
            </Array>
          </mxGeometry>
        </mxCell>
        <mxCell id="BO4RsrXT0FEhWMIk0yd--231" value="ShipControll" style="swimlane;fontStyle=1;align=center;verticalAlign=top;childLayout=stackLayout;horizontal=1;startSize=26;horizontalStack=0;resizeParent=1;resizeParentMax=0;resizeLast=0;collapsible=1;marginBottom=0;whiteSpace=wrap;html=1;" vertex="1" parent="WIyWlLk6GJQsqaUBKTNV-1">
          <mxGeometry x="2481" y="280" width="429" height="866" as="geometry" />
        </mxCell>
        <mxCell id="BO4RsrXT0FEhWMIk0yd--232" value="private List&amp;lt;ShipManager&amp;gt; _shipList()" style="text;strokeColor=none;fillColor=none;align=left;verticalAlign=top;spacingLeft=4;spacingRight=4;overflow=hidden;rotatable=0;points=[[0,0.5],[1,0.5]];portConstraint=eastwest;whiteSpace=wrap;html=1;" vertex="1" parent="BO4RsrXT0FEhWMIk0yd--231">
          <mxGeometry y="26" width="429" height="26" as="geometry" />
        </mxCell>
        <mxCell id="BO4RsrXT0FEhWMIk0yd--235" value="private List&amp;lt;ShipType&amp;gt; _shipStorage" style="text;strokeColor=none;fillColor=none;align=left;verticalAlign=top;spacingLeft=4;spacingRight=4;overflow=hidden;rotatable=0;points=[[0,0.5],[1,0.5]];portConstraint=eastwest;whiteSpace=wrap;html=1;" vertex="1" parent="BO4RsrXT0FEhWMIk0yd--231">
          <mxGeometry y="52" width="429" height="26" as="geometry" />
        </mxCell>
        <mxCell id="BO4RsrXT0FEhWMIk0yd--236" value="private Vector2 _creationPosition" style="text;strokeColor=none;fillColor=none;align=left;verticalAlign=top;spacingLeft=4;spacingRight=4;overflow=hidden;rotatable=0;points=[[0,0.5],[1,0.5]];portConstraint=eastwest;whiteSpace=wrap;html=1;" vertex="1" parent="BO4RsrXT0FEhWMIk0yd--231">
          <mxGeometry y="78" width="429" height="26" as="geometry" />
        </mxCell>
        <mxCell id="BO4RsrXT0FEhWMIk0yd--237" value="private Vector2 _mapGridPosition" style="text;strokeColor=none;fillColor=none;align=left;verticalAlign=top;spacingLeft=4;spacingRight=4;overflow=hidden;rotatable=0;points=[[0,0.5],[1,0.5]];portConstraint=eastwest;whiteSpace=wrap;html=1;" vertex="1" parent="BO4RsrXT0FEhWMIk0yd--231">
          <mxGeometry y="104" width="429" height="26" as="geometry" />
        </mxCell>
        <mxCell id="BO4RsrXT0FEhWMIk0yd--238" value="private Vector2 _mapSize" style="text;strokeColor=none;fillColor=none;align=left;verticalAlign=top;spacingLeft=4;spacingRight=4;overflow=hidden;rotatable=0;points=[[0,0.5],[1,0.5]];portConstraint=eastwest;whiteSpace=wrap;html=1;" vertex="1" parent="BO4RsrXT0FEhWMIk0yd--231">
          <mxGeometry y="130" width="429" height="26" as="geometry" />
        </mxCell>
        <mxCell id="BO4RsrXT0FEhWMIk0yd--239" value="private float _shipScale" style="text;strokeColor=none;fillColor=none;align=left;verticalAlign=top;spacingLeft=4;spacingRight=4;overflow=hidden;rotatable=0;points=[[0,0.5],[1,0.5]];portConstraint=eastwest;whiteSpace=wrap;html=1;" vertex="1" parent="BO4RsrXT0FEhWMIk0yd--231">
          <mxGeometry y="156" width="429" height="26" as="geometry" />
        </mxCell>
        <mxCell id="BO4RsrXT0FEhWMIk0yd--240" value="private float _mapScale" style="text;strokeColor=none;fillColor=none;align=left;verticalAlign=top;spacingLeft=4;spacingRight=4;overflow=hidden;rotatable=0;points=[[0,0.5],[1,0.5]];portConstraint=eastwest;whiteSpace=wrap;html=1;" vertex="1" parent="BO4RsrXT0FEhWMIk0yd--231">
          <mxGeometry y="182" width="429" height="26" as="geometry" />
        </mxCell>
        <mxCell id="BO4RsrXT0FEhWMIk0yd--243" value="private GameUI&amp;nbsp; _gameUI" style="text;strokeColor=none;fillColor=none;align=left;verticalAlign=top;spacingLeft=4;spacingRight=4;overflow=hidden;rotatable=0;points=[[0,0.5],[1,0.5]];portConstraint=eastwest;whiteSpace=wrap;html=1;" vertex="1" parent="BO4RsrXT0FEhWMIk0yd--231">
          <mxGeometry y="208" width="429" height="26" as="geometry" />
        </mxCell>
        <mxCell id="BO4RsrXT0FEhWMIk0yd--241" value="private Map _map" style="text;strokeColor=none;fillColor=none;align=left;verticalAlign=top;spacingLeft=4;spacingRight=4;overflow=hidden;rotatable=0;points=[[0,0.5],[1,0.5]];portConstraint=eastwest;whiteSpace=wrap;html=1;" vertex="1" parent="BO4RsrXT0FEhWMIk0yd--231">
          <mxGeometry y="234" width="429" height="26" as="geometry" />
        </mxCell>
        <mxCell id="BO4RsrXT0FEhWMIk0yd--242" value="private int _mapHeight" style="text;strokeColor=none;fillColor=none;align=left;verticalAlign=top;spacingLeft=4;spacingRight=4;overflow=hidden;rotatable=0;points=[[0,0.5],[1,0.5]];portConstraint=eastwest;whiteSpace=wrap;html=1;" vertex="1" parent="BO4RsrXT0FEhWMIk0yd--231">
          <mxGeometry y="260" width="429" height="26" as="geometry" />
        </mxCell>
        <mxCell id="BO4RsrXT0FEhWMIk0yd--244" value="private bool _placeShips" style="text;strokeColor=none;fillColor=none;align=left;verticalAlign=top;spacingLeft=4;spacingRight=4;overflow=hidden;rotatable=0;points=[[0,0.5],[1,0.5]];portConstraint=eastwest;whiteSpace=wrap;html=1;" vertex="1" parent="BO4RsrXT0FEhWMIk0yd--231">
          <mxGeometry y="286" width="429" height="26" as="geometry" />
        </mxCell>
        <mxCell id="BO4RsrXT0FEhWMIk0yd--245" value="public PackedScene[] ships" style="text;strokeColor=none;fillColor=none;align=left;verticalAlign=top;spacingLeft=4;spacingRight=4;overflow=hidden;rotatable=0;points=[[0,0.5],[1,0.5]];portConstraint=eastwest;whiteSpace=wrap;html=1;" vertex="1" parent="BO4RsrXT0FEhWMIk0yd--231">
          <mxGeometry y="312" width="429" height="26" as="geometry" />
        </mxCell>
        <mxCell id="BO4RsrXT0FEhWMIk0yd--233" value="" style="line;strokeWidth=1;fillColor=none;align=left;verticalAlign=middle;spacingTop=-1;spacingLeft=3;spacingRight=3;rotatable=0;labelPosition=right;points=[];portConstraint=eastwest;strokeColor=inherit;" vertex="1" parent="BO4RsrXT0FEhWMIk0yd--231">
          <mxGeometry y="338" width="429" height="8" as="geometry" />
        </mxCell>
        <mxCell id="BO4RsrXT0FEhWMIk0yd--246" value="public void _Ready()" style="text;strokeColor=none;fillColor=none;align=left;verticalAlign=top;spacingLeft=4;spacingRight=4;overflow=hidden;rotatable=0;points=[[0,0.5],[1,0.5]];portConstraint=eastwest;whiteSpace=wrap;html=1;" vertex="1" parent="BO4RsrXT0FEhWMIk0yd--231">
          <mxGeometry y="346" width="429" height="26" as="geometry" />
        </mxCell>
        <mxCell id="BO4RsrXT0FEhWMIk0yd--234" value="public void _Process()" style="text;strokeColor=none;fillColor=none;align=left;verticalAlign=top;spacingLeft=4;spacingRight=4;overflow=hidden;rotatable=0;points=[[0,0.5],[1,0.5]];portConstraint=eastwest;whiteSpace=wrap;html=1;" vertex="1" parent="BO4RsrXT0FEhWMIk0yd--231">
          <mxGeometry y="372" width="429" height="26" as="geometry" />
        </mxCell>
        <mxCell id="BO4RsrXT0FEhWMIk0yd--247" value="public void AddShipStorage(ShipType newShip)" style="text;strokeColor=none;fillColor=none;align=left;verticalAlign=top;spacingLeft=4;spacingRight=4;overflow=hidden;rotatable=0;points=[[0,0.5],[1,0.5]];portConstraint=eastwest;whiteSpace=wrap;html=1;" vertex="1" parent="BO4RsrXT0FEhWMIk0yd--231">
          <mxGeometry y="398" width="429" height="26" as="geometry" />
        </mxCell>
        <mxCell id="BO4RsrXT0FEhWMIk0yd--248" value="private void StageBeginn()" style="text;strokeColor=none;fillColor=none;align=left;verticalAlign=top;spacingLeft=4;spacingRight=4;overflow=hidden;rotatable=0;points=[[0,0.5],[1,0.5]];portConstraint=eastwest;whiteSpace=wrap;html=1;" vertex="1" parent="BO4RsrXT0FEhWMIk0yd--231">
          <mxGeometry y="424" width="429" height="26" as="geometry" />
        </mxCell>
        <mxCell id="BO4RsrXT0FEhWMIk0yd--249" value="private void BoardPlacementFinished()" style="text;strokeColor=none;fillColor=none;align=left;verticalAlign=top;spacingLeft=4;spacingRight=4;overflow=hidden;rotatable=0;points=[[0,0.5],[1,0.5]];portConstraint=eastwest;whiteSpace=wrap;html=1;" vertex="1" parent="BO4RsrXT0FEhWMIk0yd--231">
          <mxGeometry y="450" width="429" height="26" as="geometry" />
        </mxCell>
        <mxCell id="BO4RsrXT0FEhWMIk0yd--250" value="private void StageEnd()" style="text;strokeColor=none;fillColor=none;align=left;verticalAlign=top;spacingLeft=4;spacingRight=4;overflow=hidden;rotatable=0;points=[[0,0.5],[1,0.5]];portConstraint=eastwest;whiteSpace=wrap;html=1;" vertex="1" parent="BO4RsrXT0FEhWMIk0yd--231">
          <mxGeometry y="476" width="429" height="26" as="geometry" />
        </mxCell>
        <mxCell id="BO4RsrXT0FEhWMIk0yd--251" value="private void EnemyTurn()" style="text;strokeColor=none;fillColor=none;align=left;verticalAlign=top;spacingLeft=4;spacingRight=4;overflow=hidden;rotatable=0;points=[[0,0.5],[1,0.5]];portConstraint=eastwest;whiteSpace=wrap;html=1;" vertex="1" parent="BO4RsrXT0FEhWMIk0yd--231">
          <mxGeometry y="502" width="429" height="26" as="geometry" />
        </mxCell>
        <mxCell id="BO4RsrXT0FEhWMIk0yd--252" value="private void PlayerTurn()" style="text;strokeColor=none;fillColor=none;align=left;verticalAlign=top;spacingLeft=4;spacingRight=4;overflow=hidden;rotatable=0;points=[[0,0.5],[1,0.5]];portConstraint=eastwest;whiteSpace=wrap;html=1;" vertex="1" parent="BO4RsrXT0FEhWMIk0yd--231">
          <mxGeometry y="528" width="429" height="26" as="geometry" />
        </mxCell>
        <mxCell id="BO4RsrXT0FEhWMIk0yd--253" value="private void StartShipPlacement()" style="text;strokeColor=none;fillColor=none;align=left;verticalAlign=top;spacingLeft=4;spacingRight=4;overflow=hidden;rotatable=0;points=[[0,0.5],[1,0.5]];portConstraint=eastwest;whiteSpace=wrap;html=1;" vertex="1" parent="BO4RsrXT0FEhWMIk0yd--231">
          <mxGeometry y="554" width="429" height="26" as="geometry" />
        </mxCell>
        <mxCell id="BO4RsrXT0FEhWMIk0yd--254" value="public void ScaleShip(float scale)" style="text;strokeColor=none;fillColor=none;align=left;verticalAlign=top;spacingLeft=4;spacingRight=4;overflow=hidden;rotatable=0;points=[[0,0.5],[1,0.5]];portConstraint=eastwest;whiteSpace=wrap;html=1;" vertex="1" parent="BO4RsrXT0FEhWMIk0yd--231">
          <mxGeometry y="580" width="429" height="26" as="geometry" />
        </mxCell>
        <mxCell id="BO4RsrXT0FEhWMIk0yd--255" value="private void StoreShips()" style="text;strokeColor=none;fillColor=none;align=left;verticalAlign=top;spacingLeft=4;spacingRight=4;overflow=hidden;rotatable=0;points=[[0,0.5],[1,0.5]];portConstraint=eastwest;whiteSpace=wrap;html=1;" vertex="1" parent="BO4RsrXT0FEhWMIk0yd--231">
          <mxGeometry y="606" width="429" height="26" as="geometry" />
        </mxCell>
        <mxCell id="BO4RsrXT0FEhWMIk0yd--256" value="private void ClearShips()" style="text;strokeColor=none;fillColor=none;align=left;verticalAlign=top;spacingLeft=4;spacingRight=4;overflow=hidden;rotatable=0;points=[[0,0.5],[1,0.5]];portConstraint=eastwest;whiteSpace=wrap;html=1;" vertex="1" parent="BO4RsrXT0FEhWMIk0yd--231">
          <mxGeometry y="632" width="429" height="26" as="geometry" />
        </mxCell>
        <mxCell id="BO4RsrXT0FEhWMIk0yd--257" value="private void LockShips()" style="text;strokeColor=none;fillColor=none;align=left;verticalAlign=top;spacingLeft=4;spacingRight=4;overflow=hidden;rotatable=0;points=[[0,0.5],[1,0.5]];portConstraint=eastwest;whiteSpace=wrap;html=1;" vertex="1" parent="BO4RsrXT0FEhWMIk0yd--231">
          <mxGeometry y="658" width="429" height="26" as="geometry" />
        </mxCell>
        <mxCell id="BO4RsrXT0FEhWMIk0yd--258" value="private void UnlockShips()" style="text;strokeColor=none;fillColor=none;align=left;verticalAlign=top;spacingLeft=4;spacingRight=4;overflow=hidden;rotatable=0;points=[[0,0.5],[1,0.5]];portConstraint=eastwest;whiteSpace=wrap;html=1;" vertex="1" parent="BO4RsrXT0FEhWMIk0yd--231">
          <mxGeometry y="684" width="429" height="26" as="geometry" />
        </mxCell>
        <mxCell id="BO4RsrXT0FEhWMIk0yd--259" value="private void CreateShips()" style="text;strokeColor=none;fillColor=none;align=left;verticalAlign=top;spacingLeft=4;spacingRight=4;overflow=hidden;rotatable=0;points=[[0,0.5],[1,0.5]];portConstraint=eastwest;whiteSpace=wrap;html=1;" vertex="1" parent="BO4RsrXT0FEhWMIk0yd--231">
          <mxGeometry y="710" width="429" height="26" as="geometry" />
        </mxCell>
        <mxCell id="BO4RsrXT0FEhWMIk0yd--261" value="private void CreateShipGrid()" style="text;strokeColor=none;fillColor=none;align=left;verticalAlign=top;spacingLeft=4;spacingRight=4;overflow=hidden;rotatable=0;points=[[0,0.5],[1,0.5]];portConstraint=eastwest;whiteSpace=wrap;html=1;" vertex="1" parent="BO4RsrXT0FEhWMIk0yd--231">
          <mxGeometry y="736" width="429" height="26" as="geometry" />
        </mxCell>
        <mxCell id="BO4RsrXT0FEhWMIk0yd--262" value="private void GenerateShipGrid()" style="text;strokeColor=none;fillColor=none;align=left;verticalAlign=top;spacingLeft=4;spacingRight=4;overflow=hidden;rotatable=0;points=[[0,0.5],[1,0.5]];portConstraint=eastwest;whiteSpace=wrap;html=1;" vertex="1" parent="BO4RsrXT0FEhWMIk0yd--231">
          <mxGeometry y="762" width="429" height="26" as="geometry" />
        </mxCell>
        <mxCell id="BO4RsrXT0FEhWMIk0yd--263" value="private void PlaceShipGrid()" style="text;strokeColor=none;fillColor=none;align=left;verticalAlign=top;spacingLeft=4;spacingRight=4;overflow=hidden;rotatable=0;points=[[0,0.5],[1,0.5]];portConstraint=eastwest;whiteSpace=wrap;html=1;" vertex="1" parent="BO4RsrXT0FEhWMIk0yd--231">
          <mxGeometry y="788" width="429" height="26" as="geometry" />
        </mxCell>
        <mxCell id="BO4RsrXT0FEhWMIk0yd--264" value="private void PlaceLand()" style="text;strokeColor=none;fillColor=none;align=left;verticalAlign=top;spacingLeft=4;spacingRight=4;overflow=hidden;rotatable=0;points=[[0,0.5],[1,0.5]];portConstraint=eastwest;whiteSpace=wrap;html=1;" vertex="1" parent="BO4RsrXT0FEhWMIk0yd--231">
          <mxGeometry y="814" width="429" height="26" as="geometry" />
        </mxCell>
        <mxCell id="BO4RsrXT0FEhWMIk0yd--265" value="private void PlaceWater()" style="text;strokeColor=none;fillColor=none;align=left;verticalAlign=top;spacingLeft=4;spacingRight=4;overflow=hidden;rotatable=0;points=[[0,0.5],[1,0.5]];portConstraint=eastwest;whiteSpace=wrap;html=1;" vertex="1" parent="BO4RsrXT0FEhWMIk0yd--231">
          <mxGeometry y="840" width="429" height="26" as="geometry" />
        </mxCell>
        <mxCell id="BO4RsrXT0FEhWMIk0yd--266" value="ShipManager" style="swimlane;fontStyle=1;align=center;verticalAlign=top;childLayout=stackLayout;horizontal=1;startSize=26;horizontalStack=0;resizeParent=1;resizeParentMax=0;resizeLast=0;collapsible=1;marginBottom=0;whiteSpace=wrap;html=1;" vertex="1" parent="WIyWlLk6GJQsqaUBKTNV-1">
          <mxGeometry x="3120" y="280" width="400" height="632" as="geometry" />
        </mxCell>
        <mxCell id="BO4RsrXT0FEhWMIk0yd--267" value="private int _spriteRotation" style="text;strokeColor=none;fillColor=none;align=left;verticalAlign=top;spacingLeft=4;spacingRight=4;overflow=hidden;rotatable=0;points=[[0,0.5],[1,0.5]];portConstraint=eastwest;whiteSpace=wrap;html=1;" vertex="1" parent="BO4RsrXT0FEhWMIk0yd--266">
          <mxGeometry y="26" width="400" height="26" as="geometry" />
        </mxCell>
        <mxCell id="BO4RsrXT0FEhWMIk0yd--270" value="private bool _selected" style="text;strokeColor=none;fillColor=none;align=left;verticalAlign=top;spacingLeft=4;spacingRight=4;overflow=hidden;rotatable=0;points=[[0,0.5],[1,0.5]];portConstraint=eastwest;whiteSpace=wrap;html=1;" vertex="1" parent="BO4RsrXT0FEhWMIk0yd--266">
          <mxGeometry y="52" width="400" height="26" as="geometry" />
        </mxCell>
        <mxCell id="BO4RsrXT0FEhWMIk0yd--271" value="private bool _hovered" style="text;strokeColor=none;fillColor=none;align=left;verticalAlign=top;spacingLeft=4;spacingRight=4;overflow=hidden;rotatable=0;points=[[0,0.5],[1,0.5]];portConstraint=eastwest;whiteSpace=wrap;html=1;" vertex="1" parent="BO4RsrXT0FEhWMIk0yd--266">
          <mxGeometry y="78" width="400" height="26" as="geometry" />
        </mxCell>
        <mxCell id="BO4RsrXT0FEhWMIk0yd--272" value="private List&amp;lt;Vector2&amp;gt; _boardCords" style="text;strokeColor=none;fillColor=none;align=left;verticalAlign=top;spacingLeft=4;spacingRight=4;overflow=hidden;rotatable=0;points=[[0,0.5],[1,0.5]];portConstraint=eastwest;whiteSpace=wrap;html=1;" vertex="1" parent="BO4RsrXT0FEhWMIk0yd--266">
          <mxGeometry y="104" width="400" height="26" as="geometry" />
        </mxCell>
        <mxCell id="BO4RsrXT0FEhWMIk0yd--273" value="private Vector2 _tileMapPositions" style="text;strokeColor=none;fillColor=none;align=left;verticalAlign=top;spacingLeft=4;spacingRight=4;overflow=hidden;rotatable=0;points=[[0,0.5],[1,0.5]];portConstraint=eastwest;whiteSpace=wrap;html=1;" vertex="1" parent="BO4RsrXT0FEhWMIk0yd--266">
          <mxGeometry y="130" width="400" height="26" as="geometry" />
        </mxCell>
        <mxCell id="BO4RsrXT0FEhWMIk0yd--285" value="private Vector2 _placePositions" style="text;strokeColor=none;fillColor=none;align=left;verticalAlign=top;spacingLeft=4;spacingRight=4;overflow=hidden;rotatable=0;points=[[0,0.5],[1,0.5]];portConstraint=eastwest;whiteSpace=wrap;html=1;" vertex="1" parent="BO4RsrXT0FEhWMIk0yd--266">
          <mxGeometry y="156" width="400" height="26" as="geometry" />
        </mxCell>
        <mxCell id="BO4RsrXT0FEhWMIk0yd--286" value="private ShipControll.ShipType _shipType" style="text;strokeColor=none;fillColor=none;align=left;verticalAlign=top;spacingLeft=4;spacingRight=4;overflow=hidden;rotatable=0;points=[[0,0.5],[1,0.5]];portConstraint=eastwest;whiteSpace=wrap;html=1;" vertex="1" parent="BO4RsrXT0FEhWMIk0yd--266">
          <mxGeometry y="182" width="400" height="26" as="geometry" />
        </mxCell>
        <mxCell id="BO4RsrXT0FEhWMIk0yd--268" value="" style="line;strokeWidth=1;fillColor=none;align=left;verticalAlign=middle;spacingTop=-1;spacingLeft=3;spacingRight=3;rotatable=0;labelPosition=right;points=[];portConstraint=eastwest;strokeColor=inherit;" vertex="1" parent="BO4RsrXT0FEhWMIk0yd--266">
          <mxGeometry y="208" width="400" height="8" as="geometry" />
        </mxCell>
        <mxCell id="BO4RsrXT0FEhWMIk0yd--269" value="public void _Process()" style="text;strokeColor=none;fillColor=none;align=left;verticalAlign=top;spacingLeft=4;spacingRight=4;overflow=hidden;rotatable=0;points=[[0,0.5],[1,0.5]];portConstraint=eastwest;whiteSpace=wrap;html=1;" vertex="1" parent="BO4RsrXT0FEhWMIk0yd--266">
          <mxGeometry y="216" width="400" height="26" as="geometry" />
        </mxCell>
        <mxCell id="BO4RsrXT0FEhWMIk0yd--287" value="private void MouseEnter()" style="text;strokeColor=none;fillColor=none;align=left;verticalAlign=top;spacingLeft=4;spacingRight=4;overflow=hidden;rotatable=0;points=[[0,0.5],[1,0.5]];portConstraint=eastwest;whiteSpace=wrap;html=1;" vertex="1" parent="BO4RsrXT0FEhWMIk0yd--266">
          <mxGeometry y="242" width="400" height="26" as="geometry" />
        </mxCell>
        <mxCell id="BO4RsrXT0FEhWMIk0yd--288" value="private void MouseExit()" style="text;strokeColor=none;fillColor=none;align=left;verticalAlign=top;spacingLeft=4;spacingRight=4;overflow=hidden;rotatable=0;points=[[0,0.5],[1,0.5]];portConstraint=eastwest;whiteSpace=wrap;html=1;" vertex="1" parent="BO4RsrXT0FEhWMIk0yd--266">
          <mxGeometry y="268" width="400" height="26" as="geometry" />
        </mxCell>
        <mxCell id="BO4RsrXT0FEhWMIk0yd--289" value="private void BodyEnter(TileMapLayer nod)" style="text;strokeColor=none;fillColor=none;align=left;verticalAlign=top;spacingLeft=4;spacingRight=4;overflow=hidden;rotatable=0;points=[[0,0.5],[1,0.5]];portConstraint=eastwest;whiteSpace=wrap;html=1;" vertex="1" parent="BO4RsrXT0FEhWMIk0yd--266">
          <mxGeometry y="294" width="400" height="26" as="geometry" />
        </mxCell>
        <mxCell id="BO4RsrXT0FEhWMIk0yd--290" value="public void SetShipType(ShipControll.ShipType type)" style="text;strokeColor=none;fillColor=none;align=left;verticalAlign=top;spacingLeft=4;spacingRight=4;overflow=hidden;rotatable=0;points=[[0,0.5],[1,0.5]];portConstraint=eastwest;whiteSpace=wrap;html=1;" vertex="1" parent="BO4RsrXT0FEhWMIk0yd--266">
          <mxGeometry y="320" width="400" height="26" as="geometry" />
        </mxCell>
        <mxCell id="BO4RsrXT0FEhWMIk0yd--291" value="public void LockingShip()" style="text;strokeColor=none;fillColor=none;align=left;verticalAlign=top;spacingLeft=4;spacingRight=4;overflow=hidden;rotatable=0;points=[[0,0.5],[1,0.5]];portConstraint=eastwest;whiteSpace=wrap;html=1;" vertex="1" parent="BO4RsrXT0FEhWMIk0yd--266">
          <mxGeometry y="346" width="400" height="26" as="geometry" />
        </mxCell>
        <mxCell id="BO4RsrXT0FEhWMIk0yd--292" value="public void UnlockingShip()" style="text;strokeColor=none;fillColor=none;align=left;verticalAlign=top;spacingLeft=4;spacingRight=4;overflow=hidden;rotatable=0;points=[[0,0.5],[1,0.5]];portConstraint=eastwest;whiteSpace=wrap;html=1;" vertex="1" parent="BO4RsrXT0FEhWMIk0yd--266">
          <mxGeometry y="372" width="400" height="26" as="geometry" />
        </mxCell>
        <mxCell id="BO4RsrXT0FEhWMIk0yd--293" value="public void HideShip()" style="text;strokeColor=none;fillColor=none;align=left;verticalAlign=top;spacingLeft=4;spacingRight=4;overflow=hidden;rotatable=0;points=[[0,0.5],[1,0.5]];portConstraint=eastwest;whiteSpace=wrap;html=1;" vertex="1" parent="BO4RsrXT0FEhWMIk0yd--266">
          <mxGeometry y="398" width="400" height="26" as="geometry" />
        </mxCell>
        <mxCell id="BO4RsrXT0FEhWMIk0yd--295" value="public void HideShip()" style="text;strokeColor=none;fillColor=none;align=left;verticalAlign=top;spacingLeft=4;spacingRight=4;overflow=hidden;rotatable=0;points=[[0,0.5],[1,0.5]];portConstraint=eastwest;whiteSpace=wrap;html=1;" vertex="1" parent="BO4RsrXT0FEhWMIk0yd--266">
          <mxGeometry y="424" width="400" height="26" as="geometry" />
        </mxCell>
        <mxCell id="BO4RsrXT0FEhWMIk0yd--294" value="public void DestroyShip()" style="text;strokeColor=none;fillColor=none;align=left;verticalAlign=top;spacingLeft=4;spacingRight=4;overflow=hidden;rotatable=0;points=[[0,0.5],[1,0.5]];portConstraint=eastwest;whiteSpace=wrap;html=1;" vertex="1" parent="BO4RsrXT0FEhWMIk0yd--266">
          <mxGeometry y="450" width="400" height="26" as="geometry" />
        </mxCell>
        <mxCell id="BO4RsrXT0FEhWMIk0yd--296" value="public void ScaleShip()" style="text;strokeColor=none;fillColor=none;align=left;verticalAlign=top;spacingLeft=4;spacingRight=4;overflow=hidden;rotatable=0;points=[[0,0.5],[1,0.5]];portConstraint=eastwest;whiteSpace=wrap;html=1;" vertex="1" parent="BO4RsrXT0FEhWMIk0yd--266">
          <mxGeometry y="476" width="400" height="26" as="geometry" />
        </mxCell>
        <mxCell id="BO4RsrXT0FEhWMIk0yd--297" value="public void SetMapScale()" style="text;strokeColor=none;fillColor=none;align=left;verticalAlign=top;spacingLeft=4;spacingRight=4;overflow=hidden;rotatable=0;points=[[0,0.5],[1,0.5]];portConstraint=eastwest;whiteSpace=wrap;html=1;" vertex="1" parent="BO4RsrXT0FEhWMIk0yd--266">
          <mxGeometry y="502" width="400" height="26" as="geometry" />
        </mxCell>
        <mxCell id="BO4RsrXT0FEhWMIk0yd--298" value="private SetPositions()" style="text;strokeColor=none;fillColor=none;align=left;verticalAlign=top;spacingLeft=4;spacingRight=4;overflow=hidden;rotatable=0;points=[[0,0.5],[1,0.5]];portConstraint=eastwest;whiteSpace=wrap;html=1;" vertex="1" parent="BO4RsrXT0FEhWMIk0yd--266">
          <mxGeometry y="528" width="400" height="26" as="geometry" />
        </mxCell>
        <mxCell id="BO4RsrXT0FEhWMIk0yd--299" value="public List&amp;lt;Vector2I&amp;gt; GetCords()" style="text;strokeColor=none;fillColor=none;align=left;verticalAlign=top;spacingLeft=4;spacingRight=4;overflow=hidden;rotatable=0;points=[[0,0.5],[1,0.5]];portConstraint=eastwest;whiteSpace=wrap;html=1;" vertex="1" parent="BO4RsrXT0FEhWMIk0yd--266">
          <mxGeometry y="554" width="400" height="26" as="geometry" />
        </mxCell>
        <mxCell id="BO4RsrXT0FEhWMIk0yd--300" value="public bool IsPlaced()" style="text;strokeColor=none;fillColor=none;align=left;verticalAlign=top;spacingLeft=4;spacingRight=4;overflow=hidden;rotatable=0;points=[[0,0.5],[1,0.5]];portConstraint=eastwest;whiteSpace=wrap;html=1;" vertex="1" parent="BO4RsrXT0FEhWMIk0yd--266">
          <mxGeometry y="580" width="400" height="26" as="geometry" />
        </mxCell>
        <mxCell id="BO4RsrXT0FEhWMIk0yd--301" value="private void HoverSpriteCorrection()" style="text;strokeColor=none;fillColor=none;align=left;verticalAlign=top;spacingLeft=4;spacingRight=4;overflow=hidden;rotatable=0;points=[[0,0.5],[1,0.5]];portConstraint=eastwest;whiteSpace=wrap;html=1;" vertex="1" parent="BO4RsrXT0FEhWMIk0yd--266">
          <mxGeometry y="606" width="400" height="26" as="geometry" />
        </mxCell>
        <mxCell id="BO4RsrXT0FEhWMIk0yd--284" style="edgeStyle=orthogonalEdgeStyle;rounded=0;orthogonalLoop=1;jettySize=auto;html=1;entryX=0;entryY=0.5;entryDx=0;entryDy=0;" edge="1" parent="WIyWlLk6GJQsqaUBKTNV-1" source="BO4RsrXT0FEhWMIk0yd--274" target="BO4RsrXT0FEhWMIk0yd--235">
          <mxGeometry relative="1" as="geometry" />
        </mxCell>
        <mxCell id="BO4RsrXT0FEhWMIk0yd--274" value="enum ShipType" style="swimlane;fontStyle=0;childLayout=stackLayout;horizontal=1;startSize=26;fillColor=none;horizontalStack=0;resizeParent=1;resizeParentMax=0;resizeLast=0;collapsible=1;marginBottom=0;whiteSpace=wrap;html=1;" vertex="1" parent="WIyWlLk6GJQsqaUBKTNV-1">
          <mxGeometry x="2230" y="410" width="140" height="208" as="geometry" />
        </mxCell>
        <mxCell id="BO4RsrXT0FEhWMIk0yd--275" value="AircraftCarrier" style="text;strokeColor=none;fillColor=none;align=left;verticalAlign=top;spacingLeft=4;spacingRight=4;overflow=hidden;rotatable=0;points=[[0,0.5],[1,0.5]];portConstraint=eastwest;whiteSpace=wrap;html=1;" vertex="1" parent="BO4RsrXT0FEhWMIk0yd--274">
          <mxGeometry y="26" width="140" height="26" as="geometry" />
        </mxCell>
        <mxCell id="BO4RsrXT0FEhWMIk0yd--278" value="AmphibiousAssault" style="text;strokeColor=none;fillColor=none;align=left;verticalAlign=top;spacingLeft=4;spacingRight=4;overflow=hidden;rotatable=0;points=[[0,0.5],[1,0.5]];portConstraint=eastwest;whiteSpace=wrap;html=1;" vertex="1" parent="BO4RsrXT0FEhWMIk0yd--274">
          <mxGeometry y="52" width="140" height="26" as="geometry" />
        </mxCell>
        <mxCell id="BO4RsrXT0FEhWMIk0yd--279" value="Destroyer" style="text;strokeColor=none;fillColor=none;align=left;verticalAlign=top;spacingLeft=4;spacingRight=4;overflow=hidden;rotatable=0;points=[[0,0.5],[1,0.5]];portConstraint=eastwest;whiteSpace=wrap;html=1;" vertex="1" parent="BO4RsrXT0FEhWMIk0yd--274">
          <mxGeometry y="78" width="140" height="26" as="geometry" />
        </mxCell>
        <mxCell id="BO4RsrXT0FEhWMIk0yd--280" value="Cruiser" style="text;strokeColor=none;fillColor=none;align=left;verticalAlign=top;spacingLeft=4;spacingRight=4;overflow=hidden;rotatable=0;points=[[0,0.5],[1,0.5]];portConstraint=eastwest;whiteSpace=wrap;html=1;" vertex="1" parent="BO4RsrXT0FEhWMIk0yd--274">
          <mxGeometry y="104" width="140" height="26" as="geometry" />
        </mxCell>
        <mxCell id="BO4RsrXT0FEhWMIk0yd--281" value="Corvette" style="text;strokeColor=none;fillColor=none;align=left;verticalAlign=top;spacingLeft=4;spacingRight=4;overflow=hidden;rotatable=0;points=[[0,0.5],[1,0.5]];portConstraint=eastwest;whiteSpace=wrap;html=1;" vertex="1" parent="BO4RsrXT0FEhWMIk0yd--274">
          <mxGeometry y="130" width="140" height="26" as="geometry" />
        </mxCell>
        <mxCell id="BO4RsrXT0FEhWMIk0yd--282" value="Speedboat" style="text;strokeColor=none;fillColor=none;align=left;verticalAlign=top;spacingLeft=4;spacingRight=4;overflow=hidden;rotatable=0;points=[[0,0.5],[1,0.5]];portConstraint=eastwest;whiteSpace=wrap;html=1;" vertex="1" parent="BO4RsrXT0FEhWMIk0yd--274">
          <mxGeometry y="156" width="140" height="26" as="geometry" />
        </mxCell>
        <mxCell id="BO4RsrXT0FEhWMIk0yd--283" value="TestShip" style="text;strokeColor=none;fillColor=none;align=left;verticalAlign=top;spacingLeft=4;spacingRight=4;overflow=hidden;rotatable=0;points=[[0,0.5],[1,0.5]];portConstraint=eastwest;whiteSpace=wrap;html=1;" vertex="1" parent="BO4RsrXT0FEhWMIk0yd--274">
          <mxGeometry y="182" width="140" height="26" as="geometry" />
        </mxCell>
        <mxCell id="BO4RsrXT0FEhWMIk0yd--311" style="edgeStyle=orthogonalEdgeStyle;rounded=0;orthogonalLoop=1;jettySize=auto;html=1;entryX=0;entryY=0.5;entryDx=0;entryDy=0;" edge="1" parent="WIyWlLk6GJQsqaUBKTNV-1" source="BO4RsrXT0FEhWMIk0yd--302" target="BO4RsrXT0FEhWMIk0yd--308">
          <mxGeometry relative="1" as="geometry">
            <Array as="points">
              <mxPoint x="1560" y="2396" />
              <mxPoint x="1560" y="2515" />
            </Array>
          </mxGeometry>
        </mxCell>
        <mxCell id="BO4RsrXT0FEhWMIk0yd--302" value="enum IslandType" style="swimlane;fontStyle=0;childLayout=stackLayout;horizontal=1;startSize=26;fillColor=none;horizontalStack=0;resizeParent=1;resizeParentMax=0;resizeLast=0;collapsible=1;marginBottom=0;whiteSpace=wrap;html=1;" vertex="1" parent="WIyWlLk6GJQsqaUBKTNV-1">
          <mxGeometry x="1580" y="2370" width="140" height="52" as="geometry" />
        </mxCell>
        <mxCell id="BO4RsrXT0FEhWMIk0yd--303" value="Chunker" style="text;strokeColor=none;fillColor=none;align=left;verticalAlign=top;spacingLeft=4;spacingRight=4;overflow=hidden;rotatable=0;points=[[0,0.5],[1,0.5]];portConstraint=eastwest;whiteSpace=wrap;html=1;" vertex="1" parent="BO4RsrXT0FEhWMIk0yd--302">
          <mxGeometry y="26" width="140" height="26" as="geometry" />
        </mxCell>
        <mxCell id="BO4RsrXT0FEhWMIk0yd--306" value="struct IslandInfo" style="swimlane;fontStyle=0;childLayout=stackLayout;horizontal=1;startSize=26;fillColor=none;horizontalStack=0;resizeParent=1;resizeParentMax=0;resizeLast=0;collapsible=1;marginBottom=0;whiteSpace=wrap;html=1;" vertex="1" parent="WIyWlLk6GJQsqaUBKTNV-1">
          <mxGeometry x="1580" y="2450" width="250" height="78" as="geometry" />
        </mxCell>
        <mxCell id="BO4RsrXT0FEhWMIk0yd--307" value="public Vector2I coordinates" style="text;strokeColor=none;fillColor=none;align=left;verticalAlign=top;spacingLeft=4;spacingRight=4;overflow=hidden;rotatable=0;points=[[0,0.5],[1,0.5]];portConstraint=eastwest;whiteSpace=wrap;html=1;" vertex="1" parent="BO4RsrXT0FEhWMIk0yd--306">
          <mxGeometry y="26" width="250" height="26" as="geometry" />
        </mxCell>
        <mxCell id="BO4RsrXT0FEhWMIk0yd--308" value="public IslandType type" style="text;strokeColor=none;fillColor=none;align=left;verticalAlign=top;spacingLeft=4;spacingRight=4;overflow=hidden;rotatable=0;points=[[0,0.5],[1,0.5]];portConstraint=eastwest;whiteSpace=wrap;html=1;" vertex="1" parent="BO4RsrXT0FEhWMIk0yd--306">
          <mxGeometry y="52" width="250" height="26" as="geometry" />
        </mxCell>
        <mxCell id="BO4RsrXT0FEhWMIk0yd--310" style="edgeStyle=orthogonalEdgeStyle;rounded=0;orthogonalLoop=1;jettySize=auto;html=1;entryX=0;entryY=0.5;entryDx=0;entryDy=0;" edge="1" parent="WIyWlLk6GJQsqaUBKTNV-1" source="BO4RsrXT0FEhWMIk0yd--307" target="BO4RsrXT0FEhWMIk0yd--191">
          <mxGeometry relative="1" as="geometry" />
        </mxCell>
      </root>
    </mxGraphModel>
  </diagram>
</mxfile>
